<svg width="63" height="48" viewBox="0 0 39 48" fill="none" xmlns="http://www.w3.org/2000/svg">
<path d="M33.0739 35.9836L32.9169 36.5695L33.2183 37.0959L36.3123 42.4991L36.2228 42.833L1.8651 33.6261L1.95459 33.2921L7.33533 30.1599L7.85957 29.8547L8.01655 29.2688L11.1537 17.5599C12.9553 10.8357 17.8624 6.48156 24.1194 6.65407L25.2807 6.68609L25.5816 5.56399L26.0086 3.9716L26.0087 3.97125C26.3216 2.80326 27.4995 2.12985 28.6346 2.43403L28.6347 2.43404C29.7696 2.73815 30.4532 3.91024 30.1405 5.07832C30.1405 5.07844 30.1404 5.07855 30.1404 5.07867L29.7135 6.67076L29.4127 7.79236L30.4336 8.34584C35.918 11.3195 38.0061 17.5751 36.211 24.2746L37.6327 24.6555L36.211 24.2746L33.0739 35.9836ZM20.6222 44.1924C20.3055 44.6487 19.9033 45.0708 19.4454 45.4107C18.5477 46.077 17.6444 46.2848 16.9357 46.0949C16.2132 45.9013 15.5368 45.2679 15.0974 44.2478C14.8723 43.7253 14.7368 43.1582 14.6924 42.6034L17.6588 43.3984L20.6222 44.1924ZM29.0156 1.01252L29.0155 1.01285L29.0156 1.01252Z" stroke="#F25522" stroke-width="2.94367"/>
</svg>