<svg width="63" height="53" viewBox="0 0 54 53" fill="none" xmlns="http://www.w3.org/2000/svg">
<path d="M33.3661 28.2125C33.2076 28.7043 33.0319 29.1918 32.8306 29.6707C32.8862 29.5339 32.9462 29.3971 33.0019 29.2602C32.4364 30.5986 31.6995 31.8558 30.8083 33.006C30.8983 32.8906 30.9883 32.7752 31.0782 32.6597C30.1957 33.7928 29.1717 34.8109 28.0364 35.6911C28.1521 35.6012 28.2677 35.5122 28.3834 35.4224C27.2523 36.2903 26.0141 37.0128 24.7032 37.5732C24.8403 37.5177 24.9773 37.4578 25.1145 37.4014C23.7221 37.9874 22.2611 38.3856 20.7659 38.5865C20.9158 38.5645 21.0701 38.5434 21.2201 38.5266C19.7462 38.7187 18.2553 38.7187 16.7858 38.5266C16.9357 38.5478 17.0899 38.5689 17.2399 38.5865C15.7447 38.3856 14.2837 37.9874 12.8913 37.4014C13.0284 37.4578 13.1656 37.5177 13.3026 37.5732C11.9873 37.0128 10.7534 36.2903 9.62243 35.4224C9.73805 35.5122 9.85376 35.6012 9.96947 35.6911C8.83405 34.8109 7.81011 33.7928 6.92761 32.6597C7.01759 32.7752 7.10747 32.8906 7.19745 33.006C6.30632 31.8558 5.5694 30.5986 5.00389 29.2602C5.05959 29.3971 5.1196 29.5339 5.1753 29.6707C4.60115 28.3023 4.2156 26.8699 4.01423 25.4032C4.03565 25.5528 4.05706 25.7068 4.07425 25.8565C3.87711 24.3726 3.87711 22.8718 4.07425 21.3923C4.05283 21.5419 4.03142 21.6958 4.01423 21.8455C4.2156 20.3789 4.60116 18.9463 5.17098 17.5823C5.11529 17.7192 5.05536 17.856 4.99966 17.9928C5.56517 16.6501 6.30632 15.393 7.19322 14.2384C7.10325 14.3538 7.01327 14.4694 6.92329 14.5848C7.80588 13.4516 8.82982 12.4297 9.96947 11.5531C9.85376 11.6428 9.73805 11.7326 9.62243 11.8224C10.7534 10.9544 11.9916 10.2318 13.3026 9.67156C13.1656 9.72716 13.0284 9.78708 12.8913 9.84268C14.2837 9.25681 15.7447 8.85915 17.2399 8.65817C17.0899 8.67958 16.9357 8.7009 16.7858 8.718C18.2595 8.52564 19.7505 8.52564 21.2201 8.718C21.0701 8.69667 20.9158 8.67526 20.7659 8.65817C22.2611 8.85915 23.7221 9.25681 25.1145 9.84268C24.9773 9.78708 24.8403 9.72716 24.7032 9.67156C26.0185 10.2318 27.2523 10.9544 28.3834 11.8224C28.2677 11.7326 28.1521 11.6428 28.0364 11.5531C29.176 12.4339 30.1957 13.4516 31.0826 14.5848C30.9926 14.4694 30.9026 14.3538 30.8126 14.2384C31.7038 15.393 32.4407 16.6501 33.0104 17.9928C32.9547 17.856 32.8948 17.7192 32.8391 17.5823C33.4089 18.9421 33.7945 20.3746 33.9959 21.8327C33.9744 21.6831 33.953 21.5291 33.9358 21.3794C34.133 22.8718 34.133 24.3855 33.9358 25.8779C33.9573 25.7282 33.9788 25.5742 33.9959 25.4246C33.8587 26.3696 33.6531 27.3018 33.3661 28.2125C33.1004 29.0678 33.6831 30.1155 34.5614 30.3164C35.4911 30.5302 36.3822 30.0384 36.6693 29.1234C37.8688 25.2835 37.7875 20.9946 36.3608 17.2274C36.0138 16.308 35.6067 15.4058 35.127 14.5463C34.6428 13.6825 34.0686 12.883 33.4603 12.1046C32.2907 10.6166 30.8726 9.34237 29.3088 8.2776C26.3526 6.26782 22.7581 5.18604 19.185 5.14754C15.6204 5.10903 12.013 6.12675 9.01832 8.05952C7.45029 9.07292 6.01074 10.3173 4.81971 11.7583C4.18132 12.5323 3.58585 13.3404 3.07595 14.2042C2.57046 15.0551 2.15485 15.9489 1.7864 16.8639C0.231226 20.691 0.0855508 25.1124 1.30654 29.0464C2.4076 32.5913 4.57551 35.8109 7.51453 38.0949C8.28996 38.6976 9.09112 39.2615 9.94797 39.7408C10.7834 40.2069 11.6618 40.5964 12.5529 40.9383C14.228 41.5754 16.0061 41.926 17.7969 42.0538C21.3357 42.3067 24.9559 41.4687 28.0492 39.7408C31.2967 37.9318 34.0258 35.0761 35.6325 31.7318C36.0395 30.8894 36.3865 30.017 36.6736 29.1234C36.9477 28.2725 36.3523 27.2206 35.4782 27.0196C34.5357 26.8057 33.6617 27.3018 33.3661 28.2125Z" fill="url(#paint0_linear_2141_11602)" fill-opacity="0.2"/>
<path d="M20.1604 39.1745C19.8005 38.7639 19.4492 38.3445 19.115 37.9127C19.205 38.0282 19.295 38.1436 19.385 38.259C18.0525 36.532 16.9429 34.642 16.0903 32.6321C16.146 32.7689 16.206 32.9058 16.2617 33.0426C15.392 30.9772 14.8007 28.805 14.4965 26.59C14.5179 26.7397 14.5393 26.8936 14.5565 27.0433C14.2523 24.7812 14.2523 22.485 14.5565 20.2229C14.5351 20.3726 14.5137 20.5266 14.4965 20.6762C14.8007 18.457 15.392 16.2847 16.2574 14.2151C16.2017 14.3519 16.1417 14.4888 16.086 14.6256C16.9386 12.6158 18.044 10.7215 19.3807 8.98976C19.2907 9.10519 19.2007 9.22071 19.1107 9.33613C19.4449 8.9042 19.7963 8.4809 20.1561 8.07038C20.4603 7.72832 20.6573 7.33067 20.6573 6.86032C20.6573 6.44125 20.4688 5.94094 20.1561 5.65016C19.8305 5.35084 19.4021 5.12853 18.9436 5.14985C18.5066 5.17126 18.0311 5.31234 17.7312 5.65016C14.4665 9.35755 12.1916 13.9115 11.339 18.7819C11.0862 20.2315 10.9277 21.7025 10.902 23.1734C10.8763 24.623 10.992 26.0598 11.189 27.4922C11.5317 29.9638 12.243 32.3328 13.2369 34.6164C14.3466 37.1647 15.8932 39.5041 17.7269 41.5906C18.0053 41.9069 18.528 42.0911 18.9394 42.0911C19.3592 42.0911 19.8605 41.9025 20.1518 41.5906C20.4517 41.2655 20.6745 40.8381 20.6531 40.3799C20.6402 39.9138 20.4732 39.5296 20.1604 39.1745Z" fill="url(#paint1_linear_2141_11602)" fill-opacity="0.2"/>
<path d="M2.97314 20.3153C3.26017 20.3153 3.54288 20.3153 3.83 20.3153C4.60542 20.3153 5.38517 20.3153 6.16059 20.3153C7.30879 20.3153 8.45699 20.3153 9.6052 20.3153C11.0061 20.3153 12.4072 20.3153 13.8124 20.3153C15.3462 20.3153 16.8843 20.3153 18.418 20.3153C19.969 20.3153 21.5199 20.3153 23.0708 20.3153C24.5146 20.3153 25.9627 20.3153 27.4065 20.3153C28.6276 20.3153 29.8529 20.3153 31.0739 20.3153C31.9522 20.3153 32.8347 20.3153 33.713 20.3153C34.1286 20.3153 34.5485 20.3196 34.9641 20.3153C34.9812 20.3153 35.0027 20.3153 35.0198 20.3153C35.9152 20.3153 36.7763 19.5285 36.7335 18.6049C36.6906 17.677 35.9795 16.8945 35.0198 16.8945C34.7327 16.8945 34.4499 16.8945 34.1629 16.8945C33.3875 16.8945 32.6077 16.8945 31.8322 16.8945C30.684 16.8945 29.5358 16.8945 28.3876 16.8945C26.9867 16.8945 25.5857 16.8945 24.1805 16.8945C22.6467 16.8945 21.1086 16.8945 19.5748 16.8945C18.0239 16.8945 16.473 16.8945 14.922 16.8945C13.4783 16.8945 12.0302 16.8945 10.5863 16.8945C9.36532 16.8945 8.14 16.8945 6.91892 16.8945C6.04065 16.8945 5.15806 16.8945 4.27979 16.8945C3.86428 16.8945 3.44436 16.8902 3.02884 16.8945C3.01165 16.8945 2.99024 16.8945 2.97314 16.8945C2.07769 16.8945 1.21652 17.6813 1.25935 18.6049C1.30218 19.5328 2.01344 20.3153 2.97314 20.3153Z" fill="url(#paint2_linear_2141_11602)" fill-opacity="0.2"/>
<path d="M35.0198 26.9843C34.7327 26.9843 34.4499 26.9843 34.1629 26.9843C33.3875 26.9843 32.6077 26.9843 31.8322 26.9843C30.684 26.9843 29.5358 26.9843 28.3876 26.9843C26.9867 26.9843 25.5857 26.9843 24.1805 26.9843C22.6467 26.9843 21.1086 26.9843 19.5748 26.9843C18.0239 26.9843 16.473 26.9843 14.922 26.9843C13.4783 26.9843 12.0302 26.9843 10.5863 26.9843C9.36532 26.9843 8.14 26.9843 6.91892 26.9843C6.04065 26.9843 5.15806 26.9843 4.27979 26.9843C3.86428 26.9843 3.44436 26.98 3.02884 26.9843C3.01165 26.9843 2.99024 26.9843 2.97314 26.9843C2.07769 26.9843 1.21652 27.7711 1.25935 28.6947C1.30218 29.6226 2.01344 30.4052 2.97314 30.4052C3.26017 30.4052 3.54288 30.4052 3.83 30.4052C4.60542 30.4052 5.38517 30.4052 6.16059 30.4052C7.30879 30.4052 8.45699 30.4052 9.6052 30.4052C11.0061 30.4052 12.4072 30.4052 13.8124 30.4052C15.3462 30.4052 16.8843 30.4052 18.418 30.4052C19.969 30.4052 21.5199 30.4052 23.0708 30.4052C24.5146 30.4052 25.9627 30.4052 27.4065 30.4052C28.6276 30.4052 29.8529 30.4052 31.0739 30.4052C31.9522 30.4052 32.8347 30.4052 33.713 30.4052C34.1286 30.4052 34.5485 30.4094 34.9641 30.4052C34.9812 30.4052 35.0027 30.4052 35.0198 30.4052C35.9152 30.4052 36.7763 29.6183 36.7335 28.6947C36.6906 27.7668 35.9795 26.9843 35.0198 26.9843Z" fill="url(#paint3_linear_2141_11602)" fill-opacity="0.2"/>
<path d="M17.834 8.07101C18.1938 8.48144 18.5452 8.90483 18.8793 9.33667C18.7894 9.22125 18.6994 9.10581 18.6094 8.9903C19.9461 10.7179 21.0515 12.6121 21.904 14.6261C21.8483 14.4893 21.7884 14.3525 21.7327 14.2157C22.6024 16.281 23.1937 18.4533 23.4936 20.6768C23.4721 20.5271 23.4507 20.3732 23.4335 20.2236C23.7334 22.4855 23.7334 24.7818 23.4335 27.0438C23.455 26.8941 23.4764 26.7402 23.4936 26.5906C23.1893 28.8098 22.5981 30.9778 21.7284 33.0431C21.7841 32.9063 21.8441 32.7695 21.8998 32.6326C21.0472 34.6427 19.9419 36.5327 18.6052 38.2598C18.6951 38.1443 18.785 38.0289 18.875 37.9135C18.5237 38.3628 18.1638 38.8034 17.7825 39.2308C17.4784 39.5726 17.2812 39.9744 17.2812 40.4406C17.2812 40.86 17.4698 41.3605 17.7825 41.6512C18.1081 41.95 18.5366 42.1729 18.995 42.1509C19.432 42.1297 19.9033 41.9887 20.2075 41.6512C23.5021 37.9522 25.79 33.3596 26.6468 28.4763C26.8952 27.0524 27.0538 25.6114 27.0838 24.166C27.1138 22.6908 27.0024 21.2284 26.801 19.766C26.4625 17.2902 25.7471 14.9212 24.7531 12.6335C23.6435 10.0807 22.0968 7.74172 20.2589 5.6507C19.9804 5.33428 19.4577 5.15039 19.0464 5.15039C18.6266 5.15039 18.1253 5.3386 17.834 5.6507C17.5341 5.97575 17.3113 6.40328 17.3327 6.86086C17.3541 7.33121 17.5212 7.71609 17.834 8.07101Z" fill="url(#paint4_linear_2141_11602)" fill-opacity="0.2"/>
<path d="M34.1161 26.7399C33.9576 27.2317 33.7819 27.7191 33.5806 28.1981C33.6362 28.0612 33.6962 27.9244 33.7519 27.7876C33.1864 29.1259 32.4495 30.3831 31.5583 31.5334C31.6483 31.4179 31.7383 31.3025 31.8282 31.187C30.9457 32.3201 29.9217 33.3382 28.7864 34.2185C28.9021 34.1286 29.0177 34.0396 29.1334 33.9497C28.0023 34.8176 26.7641 35.5402 25.4532 36.1006C25.5903 36.0451 25.7273 35.9851 25.8645 35.9287C24.4721 36.5147 23.0111 36.913 21.5159 37.1139C21.6658 37.0918 21.8201 37.0707 21.9701 37.054C20.4962 37.246 19.0053 37.246 17.5358 37.054C17.6857 37.0751 17.8399 37.0962 17.9899 37.1139C16.4947 36.913 15.0337 36.5147 13.6413 35.9287C13.7784 35.9851 13.9156 36.0451 14.0526 36.1006C12.7373 35.5402 11.5034 34.8176 10.3724 33.9497C10.4881 34.0396 10.6038 34.1286 10.7195 34.2185C9.58405 33.3382 8.56011 32.3201 7.67761 31.187C7.76759 31.3025 7.85747 31.4179 7.94745 31.5334C7.05632 30.3831 6.3194 29.1259 5.75389 27.7876C5.80959 27.9244 5.8696 28.0612 5.9253 28.1981C5.35115 26.8297 4.9656 25.3972 4.76423 23.9306C4.78565 24.0802 4.80706 24.2341 4.82425 24.3838C4.62711 22.9 4.62711 21.3991 4.82425 19.9196C4.80283 20.0692 4.78142 20.2232 4.76423 20.3729C4.9656 18.9062 5.35116 17.4737 5.92098 16.1097C5.86529 16.2465 5.80536 16.3834 5.74966 16.5201C6.31517 15.1774 7.05632 13.9203 7.94322 12.7658C7.85325 12.8812 7.76327 12.9967 7.67329 13.1121C8.55588 11.979 9.57982 10.957 10.7195 10.0804C10.6038 10.1702 10.4881 10.26 10.3724 10.3498C11.5034 9.48176 12.7416 8.75913 14.0526 8.19891C13.9156 8.25451 13.7784 8.31442 13.6413 8.37002C15.0337 7.78415 16.4947 7.3865 17.9899 7.18551C17.8399 7.20692 17.6857 7.22825 17.5358 7.24534C19.0095 7.05299 20.5005 7.05299 21.9701 7.24534C21.8201 7.22402 21.6658 7.2026 21.5159 7.18551C23.0111 7.3865 24.4721 7.78415 25.8645 8.37002C25.7273 8.31442 25.5903 8.25451 25.4532 8.19891C26.7685 8.75913 28.0023 9.48176 29.1334 10.3498C29.0177 10.26 28.9021 10.1702 28.7864 10.0804C29.926 10.9613 30.9457 11.979 31.8326 13.1121C31.7426 12.9967 31.6526 12.8812 31.5626 12.7658C32.4538 13.9203 33.1907 15.1774 33.7604 16.5201C33.7047 16.3834 33.6448 16.2465 33.5891 16.1097C34.1589 17.4694 34.5445 18.9019 34.7459 20.36C34.7244 20.2104 34.703 20.0565 34.6858 19.9068C34.883 21.3991 34.883 22.9128 34.6858 24.4052C34.7073 24.2555 34.7288 24.1016 34.7459 23.952C34.6087 24.8969 34.4031 25.8291 34.1161 26.7399C33.8504 27.5951 34.4331 28.6428 35.3114 28.8438C36.2411 29.0575 37.1322 28.5658 37.4193 27.6507C38.6188 23.8108 38.5375 19.522 37.1108 15.7548C36.7638 14.8354 36.3567 13.9332 35.877 13.0736C35.3928 12.2098 34.8186 11.4103 34.2103 10.632C33.0407 9.14393 31.6226 7.86971 30.0588 6.80495C27.1026 4.79516 23.5081 3.71339 19.935 3.67488C16.3704 3.63638 12.763 4.65409 9.76832 6.58687C8.20029 7.60026 6.76074 8.84461 5.56971 10.2856C4.93132 11.0596 4.33585 11.8678 3.82595 12.7316C3.32046 13.5825 2.90485 14.4762 2.5364 15.3913C0.981226 19.2183 0.835551 23.6398 2.05654 27.5737C3.1576 31.1186 5.32551 34.3383 8.26453 36.6222C9.03996 37.2249 9.84112 37.7888 10.698 38.2682C11.5334 38.7343 12.4118 39.1238 13.3029 39.4656C14.978 40.1027 16.7561 40.4534 18.5469 40.5812C22.0857 40.834 25.7059 39.9961 28.7992 38.2682C32.0467 36.4592 34.7758 33.6034 36.3825 30.2592C36.7895 29.4167 37.1365 28.5444 37.4236 27.6507C37.6977 26.7998 37.1023 25.7479 36.2282 25.5469C35.2857 25.3331 34.4117 25.8291 34.1161 26.7399Z" fill="#FC5600"/>
<path d="M20.9104 37.7019C20.5505 37.2913 20.1992 36.8718 19.865 36.4401C19.955 36.5555 20.045 36.6709 20.135 36.7864C18.8025 35.0593 17.6929 33.1693 16.8403 31.1594C16.896 31.2963 16.956 31.4331 17.0117 31.5699C16.142 29.5046 15.5507 27.3324 15.2465 25.1174C15.2679 25.267 15.2893 25.4209 15.3065 25.5706C15.0023 23.3086 15.0023 21.0123 15.3065 18.7503C15.2851 18.9 15.2637 19.0539 15.2465 19.2035C15.5507 16.9843 16.142 14.812 17.0074 12.7424C16.9517 12.8793 16.8917 13.0161 16.836 13.1529C17.6886 11.1432 18.794 9.24889 20.1307 7.51711C20.0407 7.63254 19.9507 7.74805 19.8607 7.86348C20.1949 7.43155 20.5463 7.00825 20.9061 6.59772C21.2103 6.25567 21.4073 5.85801 21.4073 5.38766C21.4073 4.96859 21.2188 4.46828 20.9061 4.17751C20.5805 3.87818 20.1521 3.65587 19.6936 3.6772C19.2566 3.69861 18.7811 3.83968 18.4812 4.17751C15.2165 7.88489 12.9416 12.4389 12.089 17.3093C11.8362 18.7588 11.6777 20.2298 11.652 21.7008C11.6263 23.1503 11.742 24.5871 11.939 26.0196C12.2817 28.4912 12.993 30.8601 13.9869 33.1438C15.0966 35.692 16.6432 38.0314 18.4769 40.118C18.7553 40.4343 19.278 40.6184 19.6894 40.6184C20.1092 40.6184 20.6105 40.4299 20.9018 40.118C21.2017 39.7928 21.4245 39.3655 21.4031 38.9073C21.3902 38.4412 21.2232 38.057 20.9104 37.7019Z" fill="#FC5600"/>
<path d="M3.72314 18.8426C4.01017 18.8426 4.29288 18.8426 4.58 18.8426C5.35542 18.8426 6.13517 18.8426 6.91059 18.8426C8.05879 18.8426 9.20699 18.8426 10.3552 18.8426C11.7561 18.8426 13.1572 18.8426 14.5624 18.8426C16.0962 18.8426 17.6343 18.8426 19.168 18.8426C20.719 18.8426 22.2699 18.8426 23.8208 18.8426C25.2646 18.8426 26.7127 18.8426 28.1565 18.8426C29.3776 18.8426 30.6029 18.8426 31.8239 18.8426C32.7022 18.8426 33.5847 18.8426 34.463 18.8426C34.8786 18.8426 35.2985 18.847 35.7141 18.8426C35.7312 18.8426 35.7527 18.8426 35.7698 18.8426C36.6652 18.8426 37.5263 18.0559 37.4835 17.1323C37.4406 16.2043 36.7295 15.4218 35.7698 15.4218C35.4827 15.4218 35.1999 15.4218 34.9129 15.4218C34.1375 15.4218 33.3577 15.4218 32.5822 15.4218C31.434 15.4218 30.2858 15.4218 29.1376 15.4218C27.7367 15.4218 26.3357 15.4218 24.9305 15.4218C23.3967 15.4218 21.8586 15.4218 20.3248 15.4218C18.7739 15.4218 17.223 15.4218 15.672 15.4218C14.2283 15.4218 12.7802 15.4218 11.3363 15.4218C10.1153 15.4218 8.89 15.4218 7.66892 15.4218C6.79065 15.4218 5.90806 15.4218 5.02979 15.4218C4.61428 15.4218 4.19436 15.4176 3.77884 15.4218C3.76165 15.4218 3.74024 15.4218 3.72314 15.4218C2.82769 15.4218 1.96652 16.2087 2.00935 17.1323C2.05218 18.0602 2.76344 18.8426 3.72314 18.8426Z" fill="#FC5600"/>
<path d="M35.7698 25.5117C35.4827 25.5117 35.1999 25.5117 34.9129 25.5117C34.1375 25.5117 33.3577 25.5117 32.5822 25.5117C31.434 25.5117 30.2858 25.5117 29.1376 25.5117C27.7367 25.5117 26.3357 25.5117 24.9305 25.5117C23.3967 25.5117 21.8586 25.5117 20.3248 25.5117C18.7739 25.5117 17.223 25.5117 15.672 25.5117C14.2283 25.5117 12.7802 25.5117 11.3363 25.5117C10.1153 25.5117 8.89 25.5117 7.66892 25.5117C6.79065 25.5117 5.90806 25.5117 5.02979 25.5117C4.61428 25.5117 4.19436 25.5074 3.77884 25.5117C3.76165 25.5117 3.74024 25.5117 3.72314 25.5117C2.82769 25.5117 1.96652 26.2985 2.00935 27.2221C2.05218 28.15 2.76344 28.9325 3.72314 28.9325C4.01017 28.9325 4.29288 28.9325 4.58 28.9325C5.35542 28.9325 6.13517 28.9325 6.91059 28.9325C8.05879 28.9325 9.20699 28.9325 10.3552 28.9325C11.7561 28.9325 13.1572 28.9325 14.5624 28.9325C16.0962 28.9325 17.6343 28.9325 19.168 28.9325C20.719 28.9325 22.2699 28.9325 23.8208 28.9325C25.2646 28.9325 26.7127 28.9325 28.1565 28.9325C29.3776 28.9325 30.6029 28.9325 31.8239 28.9325C32.7022 28.9325 33.5847 28.9325 34.463 28.9325C34.8786 28.9325 35.2985 28.9368 35.7141 28.9325C35.7312 28.9325 35.7527 28.9325 35.7698 28.9325C36.6652 28.9325 37.5263 28.1457 37.4835 27.2221C37.4406 26.2941 36.7295 25.5117 35.7698 25.5117Z" fill="#FC5600"/>
<path d="M18.584 6.59835C18.9438 7.00879 19.2952 7.43217 19.6293 7.86402C19.5394 7.74859 19.4494 7.63316 19.3594 7.51764C20.6961 9.2452 21.8015 11.1395 22.654 13.1535C22.5983 13.0166 22.5384 12.8798 22.4827 12.7431C23.3524 14.8084 23.9437 16.9806 24.2436 19.2042C24.2221 19.0545 24.2007 18.9005 24.1835 18.7509C24.4834 21.0129 24.4834 23.3091 24.1835 25.5712C24.205 25.4215 24.2264 25.2675 24.2436 25.1179C23.9393 27.3372 23.3481 29.5051 22.4784 31.5705C22.5341 31.4337 22.5941 31.2968 22.6498 31.16C21.7972 33.17 20.6919 35.0601 19.3552 36.7871C19.4451 36.6717 19.535 36.5562 19.625 36.4408C19.2737 36.8902 18.9138 37.3308 18.5325 37.7581C18.2284 38.1 18.0312 38.5018 18.0312 38.9679C18.0312 39.3873 18.2198 39.8878 18.5325 40.1786C18.8581 40.4773 19.2866 40.7002 19.745 40.6782C20.182 40.6571 20.6533 40.5161 20.9575 40.1786C24.2521 36.4796 26.54 31.8869 27.3968 27.0036C27.6452 25.5797 27.8038 24.1387 27.8338 22.6934C27.8638 21.2182 27.7524 19.7558 27.551 18.2933C27.2125 15.8175 26.4971 13.4486 25.5031 11.1609C24.3935 8.60805 22.8468 6.26907 21.0089 4.17804C20.7304 3.86162 20.2077 3.67773 19.7964 3.67773C19.3766 3.67773 18.8753 3.86594 18.584 4.17804C18.2841 4.50309 18.0613 4.93062 18.0827 5.3882C18.1041 5.85855 18.2712 6.24343 18.584 6.59835Z" fill="#FC5600"/>
<path d="M34.1161 26.7399C33.9576 27.2317 33.7819 27.7191 33.5806 28.1981C33.6362 28.0612 33.6962 27.9244 33.7519 27.7876C33.1864 29.1259 32.4495 30.3831 31.5583 31.5334C31.6483 31.4179 31.7383 31.3025 31.8282 31.187C30.9457 32.3201 29.9217 33.3382 28.7864 34.2185C28.9021 34.1286 29.0177 34.0396 29.1334 33.9497C28.0023 34.8176 26.7641 35.5402 25.4532 36.1006C25.5903 36.0451 25.7273 35.9851 25.8645 35.9287C24.4721 36.5147 23.0111 36.913 21.5159 37.1139C21.6658 37.0918 21.8201 37.0707 21.9701 37.054C20.4962 37.246 19.0053 37.246 17.5358 37.054C17.6857 37.0751 17.8399 37.0962 17.9899 37.1139C16.4947 36.913 15.0337 36.5147 13.6413 35.9287C13.7784 35.9851 13.9156 36.0451 14.0526 36.1006C12.7373 35.5402 11.5034 34.8176 10.3724 33.9497C10.4881 34.0396 10.6038 34.1286 10.7195 34.2185C9.58405 33.3382 8.56011 32.3201 7.67761 31.187C7.76759 31.3025 7.85747 31.4179 7.94745 31.5334C7.05632 30.3831 6.3194 29.1259 5.75389 27.7876C5.80959 27.9244 5.8696 28.0612 5.9253 28.1981C5.35115 26.8297 4.9656 25.3972 4.76423 23.9306C4.78565 24.0802 4.80706 24.2341 4.82425 24.3838C4.62711 22.9 4.62711 21.3991 4.82425 19.9196C4.80283 20.0692 4.78142 20.2232 4.76423 20.3729C4.9656 18.9062 5.35116 17.4737 5.92098 16.1097C5.86529 16.2465 5.80536 16.3834 5.74966 16.5201C6.31517 15.1774 7.05632 13.9203 7.94322 12.7658C7.85325 12.8812 7.76327 12.9967 7.67329 13.1121C8.55588 11.979 9.57982 10.957 10.7195 10.0804C10.6038 10.1702 10.4881 10.26 10.3724 10.3498C11.5034 9.48176 12.7416 8.75913 14.0526 8.19891C13.9156 8.25451 13.7784 8.31442 13.6413 8.37002C15.0337 7.78415 16.4947 7.3865 17.9899 7.18551C17.8399 7.20692 17.6857 7.22825 17.5358 7.24534C19.0095 7.05299 20.5005 7.05299 21.9701 7.24534C21.8201 7.22402 21.6658 7.2026 21.5159 7.18551C23.0111 7.3865 24.4721 7.78415 25.8645 8.37002C25.7273 8.31442 25.5903 8.25451 25.4532 8.19891C26.7685 8.75913 28.0023 9.48176 29.1334 10.3498C29.0177 10.26 28.9021 10.1702 28.7864 10.0804C29.926 10.9613 30.9457 11.979 31.8326 13.1121C31.7426 12.9967 31.6526 12.8812 31.5626 12.7658C32.4538 13.9203 33.1907 15.1774 33.7604 16.5201C33.7047 16.3834 33.6448 16.2465 33.5891 16.1097C34.1589 17.4694 34.5445 18.9019 34.7459 20.36C34.7244 20.2104 34.703 20.0565 34.6858 19.9068C34.883 21.3991 34.883 22.9128 34.6858 24.4052C34.7073 24.2555 34.7288 24.1016 34.7459 23.952C34.6087 24.8969 34.4031 25.8291 34.1161 26.7399C33.8504 27.5951 34.4331 28.6428 35.3114 28.8438C36.2411 29.0575 37.1322 28.5658 37.4193 27.6507C38.6188 23.8108 38.5375 19.522 37.1108 15.7548C36.7638 14.8354 36.3567 13.9332 35.877 13.0736C35.3928 12.2098 34.8186 11.4103 34.2103 10.632C33.0407 9.14393 31.6226 7.86971 30.0588 6.80495C27.1026 4.79516 23.5081 3.71339 19.935 3.67488C16.3704 3.63638 12.763 4.65409 9.76832 6.58687C8.20029 7.60026 6.76074 8.84461 5.56971 10.2856C4.93132 11.0596 4.33585 11.8678 3.82595 12.7316C3.32046 13.5825 2.90485 14.4762 2.5364 15.3913C0.981226 19.2183 0.835551 23.6398 2.05654 27.5737C3.1576 31.1186 5.32551 34.3383 8.26453 36.6222C9.03996 37.2249 9.84112 37.7888 10.698 38.2682C11.5334 38.7343 12.4118 39.1238 13.3029 39.4656C14.978 40.1027 16.7561 40.4534 18.5469 40.5812C22.0857 40.834 25.7059 39.9961 28.7992 38.2682C32.0467 36.4592 34.7758 33.6034 36.3825 30.2592C36.7895 29.4167 37.1365 28.5444 37.4236 27.6507C37.6977 26.7998 37.1023 25.7479 36.2282 25.5469C35.2857 25.3331 34.4117 25.8291 34.1161 26.7399Z" fill="url(#paint5_linear_2141_11602)" fill-opacity="0.2"/>
<path d="M20.9104 37.7019C20.5505 37.2913 20.1992 36.8718 19.865 36.4401C19.955 36.5555 20.045 36.6709 20.135 36.7864C18.8025 35.0593 17.6929 33.1693 16.8403 31.1594C16.896 31.2963 16.956 31.4331 17.0117 31.5699C16.142 29.5046 15.5507 27.3324 15.2465 25.1174C15.2679 25.267 15.2893 25.4209 15.3065 25.5706C15.0023 23.3086 15.0023 21.0123 15.3065 18.7503C15.2851 18.9 15.2637 19.0539 15.2465 19.2035C15.5507 16.9843 16.142 14.812 17.0074 12.7424C16.9517 12.8793 16.8917 13.0161 16.836 13.1529C17.6886 11.1432 18.794 9.24889 20.1307 7.51711C20.0407 7.63254 19.9507 7.74805 19.8607 7.86348C20.1949 7.43155 20.5463 7.00825 20.9061 6.59772C21.2103 6.25567 21.4073 5.85801 21.4073 5.38766C21.4073 4.96859 21.2188 4.46828 20.9061 4.17751C20.5805 3.87818 20.1521 3.65587 19.6936 3.6772C19.2566 3.69861 18.7811 3.83968 18.4812 4.17751C15.2165 7.88489 12.9416 12.4389 12.089 17.3093C11.8362 18.7588 11.6777 20.2298 11.652 21.7008C11.6263 23.1503 11.742 24.5871 11.939 26.0196C12.2817 28.4912 12.993 30.8601 13.9869 33.1438C15.0966 35.692 16.6432 38.0314 18.4769 40.118C18.7553 40.4343 19.278 40.6184 19.6894 40.6184C20.1092 40.6184 20.6105 40.4299 20.9018 40.118C21.2017 39.7928 21.4245 39.3655 21.4031 38.9073C21.3902 38.4412 21.2232 38.057 20.9104 37.7019Z" fill="url(#paint6_linear_2141_11602)" fill-opacity="0.2"/>
<path d="M3.72314 18.8426C4.01017 18.8426 4.29288 18.8426 4.58 18.8426C5.35542 18.8426 6.13517 18.8426 6.91059 18.8426C8.05879 18.8426 9.20699 18.8426 10.3552 18.8426C11.7561 18.8426 13.1572 18.8426 14.5624 18.8426C16.0962 18.8426 17.6343 18.8426 19.168 18.8426C20.719 18.8426 22.2699 18.8426 23.8208 18.8426C25.2646 18.8426 26.7127 18.8426 28.1565 18.8426C29.3776 18.8426 30.6029 18.8426 31.8239 18.8426C32.7022 18.8426 33.5847 18.8426 34.463 18.8426C34.8786 18.8426 35.2985 18.847 35.7141 18.8426C35.7312 18.8426 35.7527 18.8426 35.7698 18.8426C36.6652 18.8426 37.5263 18.0559 37.4835 17.1323C37.4406 16.2043 36.7295 15.4218 35.7698 15.4218C35.4827 15.4218 35.1999 15.4218 34.9129 15.4218C34.1375 15.4218 33.3577 15.4218 32.5822 15.4218C31.434 15.4218 30.2858 15.4218 29.1376 15.4218C27.7367 15.4218 26.3357 15.4218 24.9305 15.4218C23.3967 15.4218 21.8586 15.4218 20.3248 15.4218C18.7739 15.4218 17.223 15.4218 15.672 15.4218C14.2283 15.4218 12.7802 15.4218 11.3363 15.4218C10.1153 15.4218 8.89 15.4218 7.66892 15.4218C6.79065 15.4218 5.90806 15.4218 5.02979 15.4218C4.61428 15.4218 4.19436 15.4176 3.77884 15.4218C3.76165 15.4218 3.74024 15.4218 3.72314 15.4218C2.82769 15.4218 1.96652 16.2087 2.00935 17.1323C2.05218 18.0602 2.76344 18.8426 3.72314 18.8426Z" fill="url(#paint7_linear_2141_11602)" fill-opacity="0.2"/>
<path d="M35.7698 25.5117C35.4827 25.5117 35.1999 25.5117 34.9129 25.5117C34.1375 25.5117 33.3577 25.5117 32.5822 25.5117C31.434 25.5117 30.2858 25.5117 29.1376 25.5117C27.7367 25.5117 26.3357 25.5117 24.9305 25.5117C23.3967 25.5117 21.8586 25.5117 20.3248 25.5117C18.7739 25.5117 17.223 25.5117 15.672 25.5117C14.2283 25.5117 12.7802 25.5117 11.3363 25.5117C10.1153 25.5117 8.89 25.5117 7.66892 25.5117C6.79065 25.5117 5.90806 25.5117 5.02979 25.5117C4.61428 25.5117 4.19436 25.5074 3.77884 25.5117C3.76165 25.5117 3.74024 25.5117 3.72314 25.5117C2.82769 25.5117 1.96652 26.2985 2.00935 27.2221C2.05218 28.15 2.76344 28.9325 3.72314 28.9325C4.01017 28.9325 4.29288 28.9325 4.58 28.9325C5.35542 28.9325 6.13517 28.9325 6.91059 28.9325C8.05879 28.9325 9.20699 28.9325 10.3552 28.9325C11.7561 28.9325 13.1572 28.9325 14.5624 28.9325C16.0962 28.9325 17.6343 28.9325 19.168 28.9325C20.719 28.9325 22.2699 28.9325 23.8208 28.9325C25.2646 28.9325 26.7127 28.9325 28.1565 28.9325C29.3776 28.9325 30.6029 28.9325 31.8239 28.9325C32.7022 28.9325 33.5847 28.9325 34.463 28.9325C34.8786 28.9325 35.2985 28.9368 35.7141 28.9325C35.7312 28.9325 35.7527 28.9325 35.7698 28.9325C36.6652 28.9325 37.5263 28.1457 37.4835 27.2221C37.4406 26.2941 36.7295 25.5117 35.7698 25.5117Z" fill="url(#paint8_linear_2141_11602)" fill-opacity="0.2"/>
<path d="M18.584 6.59835C18.9438 7.00879 19.2952 7.43217 19.6293 7.86402C19.5394 7.74859 19.4494 7.63316 19.3594 7.51764C20.6961 9.2452 21.8015 11.1395 22.654 13.1535C22.5983 13.0166 22.5384 12.8798 22.4827 12.7431C23.3524 14.8084 23.9437 16.9806 24.2436 19.2042C24.2221 19.0545 24.2007 18.9005 24.1835 18.7509C24.4834 21.0129 24.4834 23.3091 24.1835 25.5712C24.205 25.4215 24.2264 25.2675 24.2436 25.1179C23.9393 27.3372 23.3481 29.5051 22.4784 31.5705C22.5341 31.4337 22.5941 31.2968 22.6498 31.16C21.7972 33.17 20.6919 35.0601 19.3552 36.7871C19.4451 36.6717 19.535 36.5562 19.625 36.4408C19.2737 36.8902 18.9138 37.3308 18.5325 37.7581C18.2284 38.1 18.0312 38.5018 18.0312 38.9679C18.0312 39.3873 18.2198 39.8878 18.5325 40.1786C18.8581 40.4773 19.2866 40.7002 19.745 40.6782C20.182 40.6571 20.6533 40.5161 20.9575 40.1786C24.2521 36.4796 26.54 31.8869 27.3968 27.0036C27.6452 25.5797 27.8038 24.1387 27.8338 22.6934C27.8638 21.2182 27.7524 19.7558 27.551 18.2933C27.2125 15.8175 26.4971 13.4486 25.5031 11.1609C24.3935 8.60805 22.8468 6.26907 21.0089 4.17804C20.7304 3.86162 20.2077 3.67773 19.7964 3.67773C19.3766 3.67773 18.8753 3.86594 18.584 4.17804C18.2841 4.50309 18.0613 4.93062 18.0827 5.3882C18.1041 5.85855 18.2712 6.24343 18.584 6.59835Z" fill="url(#paint9_linear_2141_11602)" fill-opacity="0.2"/>
<path d="M43.8434 17.474C35.2703 21.5534 29.9497 18.1403 26.5439 16.0672C26.3331 15.9365 25.9749 16.0977 26.2857 16.4546C27.4204 17.8302 31.1389 21.1458 35.9926 21.1458C40.8497 21.1458 43.7392 18.496 44.1007 18.0337C44.4597 17.5754 44.2061 17.3225 43.8433 17.474H43.8434ZM46.2511 16.1445C46.0209 15.8447 44.8512 15.7888 44.115 15.8792C43.3778 15.9671 42.2711 16.4176 42.3673 16.6881C42.4167 16.7894 42.5175 16.744 43.024 16.6984C43.5318 16.6478 44.9545 16.4682 45.251 16.8557C45.5488 17.2459 44.7972 19.1045 44.66 19.4043C44.5273 19.704 44.7106 19.7813 44.9598 19.5817C45.2055 19.3821 45.6503 18.8653 45.9488 18.1339C46.2452 17.3985 46.4261 16.3727 46.2511 16.1445Z" fill="#FF9900"/>
<path fill-rule="evenodd" clip-rule="evenodd" d="M38.0735 9.15283C38.0735 10.2232 38.1005 11.1159 37.5594 12.0664C37.1227 12.8394 36.4309 13.3147 35.6579 13.3147C34.6028 13.3147 33.9883 12.5109 33.9883 11.3246C33.9883 8.98275 36.0868 8.55772 38.0735 8.55772V9.15283ZM40.8445 15.8497C40.6629 16.0119 40.4001 16.0236 40.1953 15.9153C39.2832 15.158 39.1208 14.8063 38.6184 14.0837C37.1111 15.6217 36.0444 16.0815 34.0888 16.0815C31.7776 16.0815 29.9766 14.6556 29.9766 11.7998C29.9766 9.5702 31.1863 8.05149 32.9061 7.3096C34.398 6.65259 36.4811 6.53668 38.0735 6.35512V5.99957C38.0735 5.34647 38.1237 4.57364 37.7411 4.00948C37.4048 3.50324 36.7633 3.29456 36.1989 3.29456C35.1516 3.29456 34.2163 3.83167 33.9883 4.94458C33.9418 5.19195 33.7603 5.43542 33.5129 5.44699L30.8461 5.16108C30.622 5.11074 30.3747 4.92918 30.4365 4.5852C31.051 1.35473 33.9689 0.380859 36.5815 0.380859C37.9188 0.380859 39.6657 0.736407 40.7208 1.74888C42.0581 2.99701 41.9305 4.6625 41.9305 6.47486V10.7565C41.9305 12.0433 42.4638 12.6075 42.9662 13.3031C43.144 13.5504 43.1827 13.848 42.9585 14.0334C42.3981 14.501 41.401 15.3705 40.8522 15.8574L40.8445 15.8497" fill="#222222"/>
<path d="M43.8434 17.474C35.2703 21.5534 29.9497 18.1403 26.5439 16.0672C26.3331 15.9365 25.9749 16.0977 26.2857 16.4546C27.4204 17.8302 31.1389 21.1458 35.9926 21.1458C40.8497 21.1458 43.7392 18.496 44.1007 18.0337C44.4597 17.5754 44.2061 17.3225 43.8433 17.474H43.8434ZM46.2511 16.1445C46.0209 15.8447 44.8512 15.7888 44.115 15.8792C43.3778 15.9671 42.2711 16.4176 42.3673 16.6881C42.4167 16.7894 42.5175 16.744 43.024 16.6984C43.5318 16.6478 44.9545 16.4682 45.251 16.8557C45.5488 17.2459 44.7972 19.1045 44.66 19.4043C44.5273 19.704 44.7106 19.7813 44.9598 19.5817C45.2055 19.3821 45.6503 18.8653 45.9488 18.1339C46.2452 17.3985 46.4261 16.3727 46.2511 16.1445Z" fill="#222222"/>
<path fill-rule="evenodd" clip-rule="evenodd" d="M38.0735 9.15283C38.0735 10.2232 38.1005 11.1159 37.5594 12.0664C37.1227 12.8394 36.4309 13.3147 35.6579 13.3147C34.6028 13.3147 33.9883 12.5109 33.9883 11.3246C33.9883 8.98275 36.0868 8.55772 38.0735 8.55772V9.15283ZM40.8445 15.8497C40.6629 16.0119 40.4001 16.0236 40.1953 15.9153C39.2832 15.158 39.1208 14.8063 38.6184 14.0837C37.1111 15.6217 36.0444 16.0815 34.0888 16.0815C31.7776 16.0815 29.9766 14.6556 29.9766 11.7998C29.9766 9.5702 31.1863 8.05149 32.9061 7.3096C34.398 6.65259 36.4811 6.53668 38.0735 6.35512V5.99957C38.0735 5.34647 38.1237 4.57364 37.7411 4.00948C37.4048 3.50324 36.7633 3.29456 36.1989 3.29456C35.1516 3.29456 34.2163 3.83167 33.9883 4.94458C33.9418 5.19195 33.7603 5.43542 33.5129 5.44699L30.8461 5.16108C30.622 5.11074 30.3747 4.92918 30.4365 4.5852C31.051 1.35473 33.9689 0.380859 36.5815 0.380859C37.9188 0.380859 39.6657 0.736407 40.7208 1.74888C42.0581 2.99701 41.9305 4.6625 41.9305 6.47486V10.7565C41.9305 12.0433 42.4638 12.6075 42.9662 13.3031C43.144 13.5504 43.1827 13.848 42.9585 14.0334C42.3981 14.501 41.401 15.3705 40.8522 15.8574L40.8445 15.8497" fill="#222222"/>
<path d="M29.9595 29.2781C30.1225 29.5433 30.2882 29.8064 30.4535 30.0706L30.5223 30.182L30.4146 30.2566C30.1579 30.4319 29.8965 30.6024 29.6336 30.7717C31.3172 33.4498 33.0224 36.1126 34.7191 38.7815L34.7921 38.8963L34.6782 38.9708C34.4582 39.114 34.2366 39.2579 34.0174 39.4054L33.8986 39.485L33.8233 39.3634C33.662 39.0997 33.4943 38.8404 33.3238 38.5847C32.4136 39.1529 31.5044 39.7247 30.6086 40.3156C31.1835 41.2167 31.7542 42.1201 32.3297 43.0208C32.5953 42.8589 32.8687 42.7023 33.1225 42.5145L33.2614 42.4119L33.3311 42.5697C33.4588 42.8543 33.6518 43.1017 33.8189 43.362C34.0777 43.2159 34.3315 43.0579 34.585 42.8973L34.6926 42.8288L34.7697 42.9309C35.1664 43.4617 35.5018 44.0347 35.8675 44.5889C36.1344 44.4341 36.399 44.2717 36.6621 44.108L36.7764 44.0374L36.85 44.1498C37.21 44.7064 37.5644 45.2663 37.9289 45.8199C38.1941 45.657 38.4671 45.5022 38.7221 45.3175L38.8512 45.2251L38.9252 45.3639C39.2367 45.951 39.6335 46.4903 39.9859 47.0536C40.2448 46.896 40.5027 46.7372 40.7599 46.5756L40.8748 46.5026L40.9493 46.6165C41.5099 47.4729 42.0542 48.3407 42.6156 49.1972C44.1202 48.2705 45.6136 47.3235 47.1041 46.3732C48.6296 45.3997 50.1644 44.4415 51.6681 43.4337C51.0957 42.5878 50.6251 41.6778 50.0422 40.8395L49.9592 40.7187L50.0846 40.643C50.3455 40.4872 50.599 40.3189 50.8485 40.149C50.313 39.2863 49.7682 38.4277 49.2242 37.5702L49.1567 37.464L49.2549 37.3873C49.4993 37.1969 49.7606 37.0281 50.0256 36.8624C49.4215 35.8987 48.7935 34.9511 48.212 33.9731L48.2102 33.9702L48.2083 33.9673C47.4431 32.8349 46.7317 31.6668 45.9841 30.5225C45.7267 30.689 45.4669 30.8504 45.2079 31.01L45.095 31.0797L45.0209 30.9696C44.8539 30.7186 44.6879 30.4648 44.5292 30.2063C44.2589 30.3674 44.0004 30.5435 43.7277 30.6957L43.6222 30.7546L43.5502 30.6575C43.3633 30.4049 43.2026 30.132 43.0285 29.8663C42.4645 30.222 41.9053 30.5841 41.3385 30.933L41.2241 31.0037L41.1506 30.8912C40.9847 30.6401 40.82 30.388 40.6607 30.1308C39.7686 30.6341 38.922 31.214 38.0521 31.7532L37.9406 31.822L37.8669 31.7158C37.6887 31.4618 37.5171 31.2025 37.3497 30.9381C36.7865 31.2924 36.2281 31.6539 35.6598 31.9986L35.546 32.0668L35.4734 31.9558C34.7231 30.8011 33.9901 29.635 33.247 28.4756C33.0963 28.5694 32.9459 28.6634 32.7959 28.7584C32.6842 28.8292 32.5733 28.9004 32.4625 28.9725L32.3442 29.0498L32.2699 28.9296C32.1042 28.6605 31.9341 28.394 31.7403 28.1455C31.1477 28.5248 30.5555 28.904 29.9595 29.2781Z" fill="white"/>
<path d="M29.9607 29.2784C30.5566 28.9043 31.1496 28.5255 31.7422 28.1462C31.96 28.4258 32.1494 28.7259 32.3333 29.0279C31.7335 29.4176 31.1256 29.7936 30.5269 30.185C30.3379 29.8829 30.1473 29.582 29.9607 29.2784Z" fill="#1C1C1C"/>
<path d="M29.6281 30.7692C29.927 30.5766 30.228 30.386 30.52 30.1824C32.6324 33.5015 34.7495 36.8177 36.8578 40.1394C36.5599 40.3387 36.2575 40.531 35.951 40.7169C35.7562 40.4235 35.5668 40.1258 35.3815 39.8255C35.0735 40.0051 34.7739 40.198 34.474 40.3904C34.2711 40.0932 34.0753 39.7905 33.8938 39.4796C34.1868 39.2777 34.4897 39.09 34.7874 38.8942C33.0666 36.1868 31.3359 33.4857 29.6281 30.7692Z" fill="#1C1C1C"/>
<path d="M32.3366 29.0468C32.6335 28.8523 32.9341 28.6635 33.2354 28.476C34.003 29.6735 34.7587 30.8794 35.535 32.0713C36.1439 31.7061 36.7373 31.3165 37.3381 30.9385C37.528 31.2383 37.7191 31.5373 37.9271 31.8257C38.8376 31.267 39.7177 30.6566 40.6488 30.1314C40.8314 30.4261 41.0192 30.7174 41.2117 31.0058C41.8188 30.6352 42.415 30.2462 43.0172 29.8665C43.2125 30.1645 43.3857 30.4791 43.6081 30.7582C43.9231 30.5946 44.2126 30.3885 44.517 30.2071C44.6988 30.5031 44.8876 30.7947 45.0816 31.0829C45.3803 30.9003 45.6777 30.7144 45.9728 30.5234C46.7211 31.6687 47.4327 32.8373 48.1986 33.9706C48.7806 34.9496 49.4091 35.8991 50.0138 36.8637C49.7146 37.0507 49.4162 37.2389 49.1441 37.4634C49.7107 38.3567 50.2783 39.2502 50.8363 40.149C50.5456 40.3469 50.2548 40.5458 49.9495 40.7195C49.338 39.8327 48.7752 38.9133 48.2057 37.999C48.5059 37.8122 48.8048 37.6221 49.1022 37.4297C47.7599 35.3186 46.4193 33.2074 45.0776 31.096C44.7768 31.2817 44.4788 31.472 44.1827 31.6652C43.9791 31.3823 43.8103 31.0747 43.6001 30.7968C43.2678 30.9281 42.9876 31.1553 42.688 31.3442C43.2576 32.2536 43.8504 33.1482 44.4087 34.0656C44.1137 34.254 43.8177 34.4423 43.5227 34.6307C42.734 33.436 41.9866 32.215 41.2108 31.0121C40.6032 31.3936 39.999 31.7804 39.3953 32.1668C39.9709 33.0715 40.5558 33.9703 41.1206 34.8811C40.8246 35.0784 40.5251 35.2688 40.222 35.4535C39.4486 34.2507 38.6795 33.0443 37.9264 31.8286C37.3187 32.211 36.713 32.5954 36.1115 32.9878C36.8719 34.1972 37.6498 35.3955 38.412 36.6038C38.1146 36.8052 37.8114 36.9988 37.5029 37.1828C35.7787 34.4727 34.0559 31.7608 32.3366 29.0468Z" fill="#1C1C1C"/>
<path d="M30.6012 40.312C31.4969 39.7211 32.4059 39.1495 33.316 38.5813C33.5133 38.8772 33.7091 39.1733 33.8912 39.4789C33.2994 39.8749 32.6921 40.2465 32.0949 40.6328C32.4531 41.2446 32.8886 41.8097 33.2278 42.4327C32.9476 42.6599 32.6281 42.8304 32.3214 43.0173C31.746 42.1166 31.1761 41.2131 30.6012 40.312Z" fill="#1C1C1C"/>
<path d="M33.2702 42.4397C33.5324 42.21 33.8385 42.039 34.1368 41.8607C34.3352 42.1584 34.5281 42.4604 34.7176 42.7646C35.021 42.574 35.3225 42.3815 35.6274 42.1933C36.0173 42.7906 36.3932 43.3969 36.7795 43.9964C37.0767 43.805 37.376 43.6155 37.6774 43.4294C38.0573 44.0356 38.4873 44.6164 38.8078 45.2562C38.5306 45.4701 38.2224 45.6367 37.9258 45.8188C37.537 45.2282 37.1586 44.6309 36.7738 44.0376C36.4738 44.226 36.1716 44.4108 35.865 44.5887C35.477 44.0008 35.1273 43.3869 34.6963 42.8288C34.408 43.0137 34.1151 43.1927 33.8171 43.361C33.6243 43.0605 33.3902 42.7798 33.2702 42.4397Z" fill="#1C1C1C"/>
<path d="M38.8604 45.2315C39.141 45.0203 39.447 44.8453 39.7447 44.6584C40.135 45.2539 40.5095 45.8593 40.893 46.4583C41.1935 46.2655 41.4959 46.0732 41.8043 45.8918C42.1923 46.4887 42.5637 47.0969 42.9545 47.692C45.3662 46.1664 47.7734 44.6337 50.1806 43.1011C49.8074 42.494 49.4133 41.9001 49.0368 41.2943C49.3424 41.0942 49.648 40.8941 49.9673 40.7155C50.5895 41.5857 51.0749 42.5438 51.6746 43.4299C50.1709 44.4377 48.6354 45.3955 47.1099 46.369C45.6195 47.3194 44.1268 48.2663 42.6222 49.193C42.0363 48.2989 41.4689 47.393 40.8822 46.5003C40.5876 46.6868 40.2904 46.8693 39.9924 47.0507C39.6139 46.4453 39.1798 45.8696 38.8604 45.2315Z" fill="#1C1C1C"/>
<defs>
<linearGradient id="paint0_linear_2141_11602" x1="37.8717" y1="22.8906" x2="1.22512" y2="22.8906" gradientUnits="userSpaceOnUse">
<stop stop-color="#DB3900"/>
<stop offset="0.431807" stop-color="#DB3900"/>
<stop offset="1" stop-color="#FF5700" stop-opacity="0"/>
</linearGradient>
<linearGradient id="paint1_linear_2141_11602" x1="20.7539" y1="22.8883" x2="11.0917" y2="22.8883" gradientUnits="userSpaceOnUse">
<stop stop-color="#DB3900"/>
<stop offset="0.431807" stop-color="#DB3900"/>
<stop offset="1" stop-color="#FF5700" stop-opacity="0"/>
</linearGradient>
<linearGradient id="paint2_linear_2141_11602" x1="37.0861" y1="18.5371" x2="1.96033" y2="18.5371" gradientUnits="userSpaceOnUse">
<stop stop-color="#DB3900"/>
<stop offset="0.431807" stop-color="#DB3900"/>
<stop offset="1" stop-color="#FF5700" stop-opacity="0"/>
</linearGradient>
<linearGradient id="paint3_linear_2141_11602" x1="37.0861" y1="28.6269" x2="1.96033" y2="28.6269" gradientUnits="userSpaceOnUse">
<stop stop-color="#DB3900"/>
<stop offset="0.431807" stop-color="#DB3900"/>
<stop offset="1" stop-color="#FF5700" stop-opacity="0"/>
</linearGradient>
<linearGradient id="paint4_linear_2141_11602" x1="27.1857" y1="22.9187" x2="17.4755" y2="22.9187" gradientUnits="userSpaceOnUse">
<stop stop-color="#DB3900"/>
<stop offset="0.431807" stop-color="#DB3900"/>
<stop offset="1" stop-color="#FF5700" stop-opacity="0"/>
</linearGradient>
<linearGradient id="paint5_linear_2141_11602" x1="38.072" y1="22.6985" x2="1.60865" y2="22.6985" gradientUnits="userSpaceOnUse">
<stop stop-color="#DB3900"/>
<stop offset="0.479167" stop-color="#DB3900"/>
<stop offset="1" stop-color="#FC5600" stop-opacity="0"/>
</linearGradient>
<linearGradient id="paint6_linear_2141_11602" x1="21.359" y1="22.6958" x2="11.7451" y2="22.6958" gradientUnits="userSpaceOnUse">
<stop stop-color="#DB3900"/>
<stop offset="0.479167" stop-color="#DB3900"/>
<stop offset="1" stop-color="#FC5600" stop-opacity="0"/>
</linearGradient>
<linearGradient id="paint7_linear_2141_11602" x1="37.3093" y1="17.1831" x2="2.35907" y2="17.1831" gradientUnits="userSpaceOnUse">
<stop stop-color="#DB3900"/>
<stop offset="0.479167" stop-color="#DB3900"/>
<stop offset="1" stop-color="#FC5600" stop-opacity="0"/>
</linearGradient>
<linearGradient id="paint8_linear_2141_11602" x1="37.3093" y1="27.273" x2="2.35907" y2="27.273" gradientUnits="userSpaceOnUse">
<stop stop-color="#DB3900"/>
<stop offset="0.479167" stop-color="#DB3900"/>
<stop offset="1" stop-color="#FC5600" stop-opacity="0"/>
</linearGradient>
<linearGradient id="paint9_linear_2141_11602" x1="27.7901" y1="22.7283" x2="18.1284" y2="22.7283" gradientUnits="userSpaceOnUse">
<stop stop-color="#DB3900"/>
<stop offset="0.479167" stop-color="#DB3900"/>
<stop offset="1" stop-color="#FC5600" stop-opacity="0"/>
</linearGradient>
</defs>
</svg>
