<svg width="63" height="41" viewBox="0 0 52 41" fill="none" xmlns="http://www.w3.org/2000/svg">
<path fill-rule="evenodd" clip-rule="evenodd" d="M13.0898 33.408C12.9467 33.5497 12.7162 33.5497 12.5731 33.408L0.640143 21.5952C0.494952 21.4515 0.494952 21.2169 0.640143 21.0732L12.5731 9.26039C12.7162 9.1187 12.9467 9.1187 13.0898 9.26039L16.1264 12.2663C16.2715 12.4101 16.2715 12.6446 16.1264 12.7883L7.75726 21.0732C7.61207 21.2169 7.61207 21.4515 7.75726 21.5952L16.1264 29.8802C16.2715 30.0237 16.2715 30.2583 16.1264 30.4021L13.0898 33.408ZM38.9047 9.26039C39.0478 9.1187 39.2782 9.1187 39.4213 9.26039L51.3543 21.0732C51.4995 21.2169 51.4995 21.4515 51.3543 21.5952L39.4213 33.408C39.2782 33.5497 39.0478 33.5497 38.9047 33.408L35.868 30.4021C35.7228 30.2583 35.7228 30.0237 35.868 29.8802L44.2371 21.5952C44.3823 21.4515 44.3823 21.2169 44.2371 21.0732L35.868 12.7883C35.7228 12.6446 35.7228 12.4101 35.868 12.2663L38.9047 9.26039ZM27.0771 1.18377C27.1124 0.984587 27.3025 0.851588 27.5018 0.886393L31.7342 1.62517C31.9346 1.66015 32.0685 1.85121 32.0328 2.05138L25.1704 40.5781C25.1347 40.7771 24.945 40.9103 24.7457 40.8753L20.5133 40.1364C20.3129 40.1015 20.179 39.9106 20.2147 39.7103L27.0771 1.18377Z" fill="#F25522"/>
</svg>