<svg width="63" height="39" viewBox="0 0 39 39" fill="none" xmlns="http://www.w3.org/2000/svg">
<path d="M31.154 23.2811L28.789 20.9078L33.3448 16.3688C34.6783 15.0347 35.5031 13.1919 35.5031 11.1565C35.5031 7.08454 32.202 3.78352 28.1299 3.78352C26.0932 3.78352 24.2495 4.60926 22.9151 5.94426L18.3777 10.4984L16.006 8.13338L20.5451 3.57766C22.4858 1.63633 25.1672 0.435547 28.1291 0.435547C34.0516 0.435547 38.8528 5.23663 38.8528 11.159C38.8528 14.1196 37.653 16.8 35.713 18.7405H35.7131L31.154 23.2811ZM11.0449 38.9614H11.0398C5.1196 38.9615 0.320312 34.1623 0.320312 28.2422C0.320312 25.2809 1.52115 22.6 3.46248 20.66L3.46255 20.6599L8.02 16.1193L10.3849 18.4926L5.82919 23.0316C4.49564 24.3657 3.6709 26.2085 3.6709 28.2439C3.6709 32.3159 6.97197 35.6169 11.044 35.6169C13.0807 35.6169 14.9245 34.7912 16.2589 33.4562V33.4561L20.7963 28.9021L23.1697 31.267L18.6307 35.8227C16.7008 37.7617 14.0299 38.9615 11.0787 38.9615H11.0431H11.045L11.0449 38.9614ZM12.7818 28.8736L10.4135 26.5053L26.3922 10.5268L28.7605 12.8951L12.7818 28.8736Z" fill="#F25522"/>
</svg>