<svg width="63" height="51" viewBox="0 0 62 51" fill="none" xmlns="http://www.w3.org/2000/svg">
<mask id="path-2-inside-1_2141_11635" fill="white">
<rect x="32.9375" y="13.623" width="17.6576" height="5.49419" rx="1.35312"/>
</mask>
<rect x="32.9375" y="13.623" width="17.6576" height="5.49419" rx="1.35312" fill="white" fill-opacity="0.51" stroke="#FFE2D3" stroke-width="3.63628" mask="url(#path-2-inside-1_2141_11635)"/>
<rect x="33.4581" y="21.003" width="16.6164" height="1.04123" rx="0.520613" fill="white" fill-opacity="0.51" stroke="#FFE2D3" stroke-width="1.04123"/>
<rect x="33.4581" y="23.7042" width="16.6164" height="1.04123" rx="0.520613" fill="white" fill-opacity="0.51" stroke="#FFE2D3" stroke-width="1.04123"/>
<rect x="33.4581" y="26.4132" width="16.6164" height="1.04123" rx="0.520613" fill="white" fill-opacity="0.51" stroke="#FFE2D3" stroke-width="1.04123"/>
<rect x="12.6981" y="14.5321" width="16.2596" height="15.3092" rx="1.64989" fill="white" stroke="#FFE2D3" stroke-width="1.81814"/>
<mask id="path-7-inside-2_2141_11635" fill="white">
<rect x="32.9375" y="30.7539" width="17.6601" height="4.86258" rx="1.35312"/>
</mask>
<rect x="32.9375" y="30.7539" width="17.6601" height="4.86258" rx="1.35312" fill="white" stroke="#FFE2D3" stroke-width="3.63628" mask="url(#path-7-inside-2_2141_11635)"/>
<rect x="14.5982" y="37.4146" width="35.5997" height="0.837077" rx="0.418539" fill="white" stroke="#FFE2D3" stroke-width="0.837077"/>
<rect x="8.19813" y="6.90321" width="46.368" height="38.0043" rx="5.31542" stroke="#FFE2D3" stroke-width="1.81814"/>
<mask id="path-10-inside-3_2141_11635" fill="white">
<rect x="31.5703" y="13.623" width="17.6576" height="5.49419" rx="1.35312"/>
</mask>
<rect x="31.5703" y="13.623" width="17.6576" height="5.49419" rx="1.35312" fill="#F25522" fill-opacity="0.51" stroke="#F25522" stroke-width="3.63628" mask="url(#path-10-inside-3_2141_11635)"/>
<rect x="32.0909" y="21.003" width="16.6164" height="1.04123" rx="0.520613" fill="white" fill-opacity="0.51" stroke="#F25522" stroke-width="1.04123"/>
<rect x="32.0909" y="23.7042" width="16.6164" height="1.04123" rx="0.520613" fill="white" fill-opacity="0.51" stroke="#F25522" stroke-width="1.04123"/>
<rect x="32.0909" y="26.4132" width="16.6164" height="1.04123" rx="0.520613" fill="white" fill-opacity="0.51" stroke="#F25522" stroke-width="1.04123"/>
<rect x="11.3466" y="14.5321" width="16.2596" height="15.3092" rx="1.64989" fill="white" stroke="#F25522" stroke-width="1.81814"/>
<mask id="path-15-inside-4_2141_11635" fill="white">
<rect x="31.5703" y="30.7539" width="17.6601" height="4.86258" rx="1.35312"/>
</mask>
<rect x="31.5703" y="30.7539" width="17.6601" height="4.86258" rx="1.35312" fill="#F25522" stroke="#F25522" stroke-width="3.63628" mask="url(#path-15-inside-4_2141_11635)"/>
<rect x="13.2389" y="37.4146" width="35.5997" height="0.837077" rx="0.418539" fill="white" stroke="#F25522" stroke-width="0.837077"/>
<rect x="6.84657" y="6.90321" width="46.368" height="38.0043" rx="5.31542" stroke="#F25522" stroke-width="1.81814"/>
</svg>