<svg width="63" height="41" viewBox="0 0 63 41" fill="none" xmlns="http://www.w3.org/2000/svg">
<mask id="path-1-outside-1_2141_11592" maskUnits="userSpaceOnUse" x="0.304688" y="-0.466797" width="63" height="42" fill="black">
<rect fill="white" x="0.304688" y="-0.466797" width="63" height="42"/>
<path d="M44.1694 32.8994C44.1115 33.348 43.9577 33.7788 43.7184 34.1626C43.4791 34.5464 43.16 34.8741 42.7827 35.1235C42.4054 35.373 41.9788 35.5382 41.532 35.608C41.0851 35.6778 40.6285 35.6506 40.1931 35.5281C39.7957 35.4183 39.6632 35.4309 39.5777 35.8941C39.2031 37.9237 36.9342 38.9709 35.0978 37.972C34.7229 37.7681 34.6478 37.7843 34.5361 38.2172C34.4071 38.7265 34.1495 39.1942 33.788 39.5755C33.4265 39.9567 32.9732 40.2389 32.4714 40.3948C31.9697 40.5508 31.4363 40.5754 30.9224 40.4662C30.4084 40.3571 29.9311 40.1178 29.536 39.7714C29.0135 39.3292 28.4965 38.8805 27.9851 38.4253C27.7987 38.2592 27.6528 38.167 27.3994 38.3461C25.8425 39.4465 23.5548 38.4023 23.0826 36.5155C23.0005 36.1875 22.9153 36.1106 22.5689 36.1365C21.8304 36.1973 21.0974 35.9675 20.5258 35.496C19.9542 35.0245 19.5892 34.3485 19.5085 33.6119C19.4744 33.3307 19.4281 33.237 19.1123 33.2439C17.318 33.2833 16.0626 32.0619 16.0783 30.2907C16.0814 29.9335 16.0155 29.8155 15.6339 29.7782C15.1882 29.739 14.7578 29.5958 14.3773 29.3602C13.9969 29.1245 13.677 28.803 13.4433 28.4214C13.2096 28.0398 13.0686 27.6087 13.0317 27.1627C12.9948 26.7167 13.0629 26.2683 13.2306 25.8534C13.2832 25.7565 13.3015 25.6446 13.2826 25.5359C13.2637 25.4272 13.2086 25.328 13.1263 25.2546C12.5563 24.6404 12.079 23.9465 11.7092 23.1946C11.5111 22.7768 11.0838 22.6613 10.7096 22.4867C10.5272 22.4015 10.4479 22.5899 10.3401 22.6857C9.44687 23.4789 8.56589 23.6067 7.50929 23.0673C5.90154 22.2466 4.29564 21.4219 2.69834 20.5811C1.35218 19.8725 0.942961 18.6154 1.63865 17.2645C4.27515 12.145 6.92066 7.03009 9.57517 1.91986C10.2874 0.549153 11.5574 0.174841 12.9421 0.885472C14.5145 1.69245 16.0848 2.50333 17.6532 3.31811C18.7517 3.88838 19.1895 4.70809 19.0137 5.9357C18.9771 6.19068 19.0174 6.30614 19.24 6.41969C19.9681 6.79106 20.6849 7.18423 21.4083 7.56485C21.755 7.74731 22.1387 7.75379 22.5178 7.78731C23.9448 7.91349 25.369 7.74173 26.7946 7.75642C26.9844 7.74217 27.1616 7.65571 27.2897 7.51484C27.7745 7.11661 28.2679 6.72825 28.7415 6.31712C30.1077 5.13109 31.6935 4.78308 33.4668 4.94423C36.1045 5.18396 38.6898 5.72 41.2857 6.20391C41.8459 6.30833 42.4135 6.37277 42.9739 6.47581C44.1458 6.69125 45.1729 6.19358 46.231 5.83937C46.4397 5.76953 46.3885 5.63356 46.374 5.47637C46.2457 4.08328 46.7972 3.24748 48.1339 2.80235C49.8277 2.23831 51.5222 1.67638 53.2174 1.11654C54.584 0.66481 55.8088 1.25249 56.2626 2.61522C58.0989 8.13012 59.9271 13.6477 61.7474 19.1679C62.1838 20.4915 61.6054 21.6914 60.3002 22.1446C58.5058 22.7676 56.7004 23.3597 54.8918 23.9407C53.8743 24.2676 52.975 23.9796 52.3187 23.1032C52.1084 22.8223 51.9478 22.8384 51.7211 22.995C51.5575 23.0913 51.411 23.2144 51.2879 23.359C50.3607 24.6518 49.1157 25.5856 47.8093 26.4461C47.5109 26.6427 47.4677 26.7389 47.7471 27.0179C48.2747 27.5217 48.614 28.1909 48.7086 28.9142C48.8032 29.6375 48.6474 30.3715 48.2672 30.994C47.8918 31.6182 47.3224 32.1023 46.6459 32.3724C45.9695 32.6425 45.2232 32.6837 44.5212 32.4897C44.4696 32.465 44.4226 32.4319 44.3821 32.3915C44.0062 32.4331 44.2031 32.7146 44.1694 32.8994ZM32.2651 13.5853L32.6259 13.9252C32.7676 14.1881 33.0481 14.2952 33.2597 14.4784C37.5015 18.1497 41.7471 21.8167 45.9966 25.4792C46.1744 25.6328 46.322 25.7785 46.5882 25.6022C47.8423 24.7718 49.1087 23.9574 50.0172 22.7192C50.3144 22.2728 50.7325 21.9201 51.2227 21.7024C51.6001 21.5522 51.6223 21.3741 51.5032 21.0177C50.0103 16.5497 48.5302 12.0775 47.0627 7.60099C46.9245 7.17857 46.773 7.086 46.3562 7.25195C45.2199 7.70436 44.0588 8.06136 42.8064 7.84651C41.8329 7.6795 40.8548 7.53585 39.8857 7.34615C37.6469 6.90786 35.4063 6.49299 33.128 6.30579C31.9213 6.20664 30.8196 6.42415 29.8596 7.19463C27.9901 8.69495 26.1722 10.2554 24.4059 11.8759C24.113 12.1337 23.8854 12.4573 23.7416 12.82C23.5978 13.1828 23.542 13.5744 23.5787 13.9629C23.6848 15.9943 23.824 18.0268 23.6163 20.0618C23.5509 20.7035 23.7218 20.8875 24.3636 20.8919C25.3664 20.8989 26.0325 20.2925 26.5563 19.5473C27.3029 18.5053 27.7463 17.2771 27.8375 15.9985C27.9275 14.7105 28.4845 13.7124 29.6296 13.0755C30.4158 12.6381 31.1595 12.7259 31.8601 13.2748C31.994 13.3797 32.13 13.4819 32.2651 13.5853ZM31.4904 14.8305C30.739 14.031 30.5555 14.0051 29.8916 14.6052C29.3722 14.9983 29.2734 15.5684 29.2082 16.1665C29.0004 18.0698 28.3675 19.7953 26.9704 21.1596C26.162 21.9491 25.1958 22.3964 24.0281 22.2552C23 22.1309 22.0564 21.4723 22.2188 20.099C22.4334 18.5317 22.4397 16.9428 22.2375 15.3738C21.8836 12.9861 22.6531 11.1704 24.6172 9.81335C24.816 9.67597 25.0577 9.53537 25.1439 9.22309C24.4158 9.22309 23.7333 9.22999 23.051 9.22149C21.992 9.20832 20.9634 9.07273 20.0769 8.41712C20.247 8.1865 20.5594 8.30215 20.7809 8.14996C20.3961 7.9521 20.0677 8.19559 19.7226 8.21518C19.3672 8.03716 19.0007 7.87789 18.6599 7.67535C18.3705 7.50332 18.2467 7.58906 18.1037 7.86676C15.8858 12.1741 13.6599 16.4773 11.4262 20.7765C11.2681 21.0806 11.2785 21.2359 11.6189 21.3728C11.9556 21.5066 12.2616 21.7074 12.5182 21.9631C12.7749 22.2189 12.9768 22.5241 13.1118 22.8603C13.3166 23.3334 13.6774 23.7127 13.9797 24.1269C14.1991 24.4275 14.3547 24.4232 14.573 24.1219C14.9443 23.6095 15.3768 23.1624 16.0027 22.9471C17.3265 22.4918 18.7945 23.0883 19.5381 24.4141C19.6783 24.664 19.7351 24.8013 20.049 24.5614C21.0349 23.8078 22.1207 23.7199 23.2004 24.3263C24.2802 24.9328 24.7578 25.9021 24.6472 27.1408C24.6218 27.4253 24.5914 27.5962 24.9864 27.6758C27.2237 28.1265 28.1142 30.1471 26.9727 32.1442C26.8425 32.3719 26.825 32.4393 27.0949 32.5304C27.4294 32.6608 27.7566 32.8092 28.0751 32.9751C29.4825 34.3579 29.6346 35.2316 28.725 36.8966C28.6058 37.1149 28.6944 37.2028 28.8298 37.3198C29.3765 37.7924 29.9114 38.2793 30.4713 38.7357C30.8129 39.0223 31.2543 39.1616 31.6986 39.123C32.1429 39.0845 32.5537 38.8712 32.8409 38.53C33.128 38.1889 33.2681 37.7477 33.2303 37.3034C33.1924 36.8591 32.9799 36.4479 32.6392 36.1602C31.4242 35.0959 30.1929 34.0503 28.9685 32.9968C28.7075 32.5973 28.5827 32.1944 29.0088 31.8276C29.4453 31.4516 29.8188 31.6988 30.177 31.9807C30.3112 32.0863 30.4377 32.2018 30.5671 32.3135C32.1922 33.7165 33.8244 35.1114 35.4395 36.5258C36.4474 37.4085 37.786 36.8249 38.1503 35.861C38.4191 35.1498 38.226 34.4794 37.5402 33.8833C35.7907 32.3627 34.0372 30.8468 32.2795 29.3357C32.0319 29.1574 31.834 28.9187 31.7046 28.6424C31.7098 28.5285 31.715 28.4146 31.7201 28.3008C32.17 27.5985 32.5665 27.5329 33.1936 28.0748C35.3227 29.9147 37.4501 31.7564 39.5759 33.6001C39.9218 33.8994 40.2738 34.187 40.7592 34.2369C41.1486 34.2906 41.5449 34.2174 41.8894 34.0281C42.2339 33.8389 42.5082 33.5437 42.6717 33.1863C43.0171 32.4527 42.8322 31.6085 42.1589 31.0223C40.1657 29.2867 38.1674 27.5569 36.1641 25.8328C35.9097 25.6334 35.6699 25.4161 35.4464 25.1825C35.1557 24.8464 35.0964 24.4584 35.4146 24.0988C35.723 23.7502 36.0876 23.7991 36.4421 24.0292C36.5976 24.1385 36.7455 24.2584 36.8846 24.3879C39.3007 26.4774 41.7167 28.567 44.1327 30.6566C45.0233 31.4244 46.17 31.3699 46.8743 30.5458C47.5933 29.7044 47.475 28.6163 46.5635 27.8257C43.2169 24.9234 39.868 22.0238 36.5166 19.1269C34.8483 17.6867 33.1663 16.2622 31.4904 14.8305ZM17.6791 5.5155C17.6866 5.31786 17.6339 5.1226 17.5278 4.95563C17.4218 4.78866 17.2675 4.65787 17.0855 4.58063C15.4647 3.74565 13.8499 2.89884 12.2254 2.07107C11.6055 1.75517 11.1296 1.91706 10.8066 2.54041C8.15875 7.65093 5.51471 12.7634 2.87445 17.8778C2.5223 18.5603 2.68184 19.0229 3.36829 19.3791C4.93641 20.1929 6.5071 21.0016 8.08036 21.8054C8.8066 22.1765 9.22452 22.0353 9.60617 21.2978C12.234 16.2198 14.8608 11.1414 17.4867 6.06245C17.5975 5.90011 17.6639 5.71151 17.6791 5.5155ZM53.9882 2.34982C53.896 2.3721 53.727 2.40069 53.566 2.45372C51.8884 3.00637 50.2118 3.56181 48.536 4.12003C47.778 4.37377 47.5754 4.79787 47.833 5.57583C49.6244 10.9846 51.4174 16.3929 53.212 21.8006C53.4898 22.6377 53.8873 22.8286 54.738 22.5466C56.2884 22.0326 57.8366 21.5117 59.3884 21.002C60.5258 20.6285 60.6871 20.332 60.3131 19.2023C59.2446 15.9749 58.1741 12.7481 57.1016 9.52205C56.4021 7.41313 55.704 5.30374 55.0074 3.19388C54.8531 2.72434 54.6168 2.36817 53.9882 2.34982ZM23.2834 26.8229C23.2871 26.5169 23.1949 26.2174 23.0198 25.9664C22.8447 25.7153 22.5955 25.5253 22.3071 25.423C21.7063 25.1908 21.0824 25.3611 20.6303 25.9168C19.6839 27.0802 18.7454 28.25 17.8149 29.4263C17.2452 30.1498 17.3361 31.0077 18.0071 31.5493C18.6583 32.075 19.5543 31.969 20.1249 31.2716C21.0625 30.1255 21.9834 28.9657 22.9126 27.8127C23.155 27.5404 23.2872 27.1875 23.2834 26.8229ZM20.8666 33.2547C20.8615 33.5602 20.9511 33.8598 21.1231 34.1124C21.2951 34.3649 21.5411 34.558 21.8273 34.6651C22.1106 34.782 22.4242 34.8035 22.7208 34.7265C23.0174 34.6495 23.2809 34.4781 23.4715 34.2382C24.2191 33.3565 24.9528 32.4629 25.6814 31.5653C26.2857 30.8207 26.2373 29.9433 25.5796 29.3859C24.8977 28.8079 24.0159 28.9227 23.3841 29.6833C22.6696 30.5434 21.968 31.4143 21.2521 32.2732C21.0111 32.5442 20.8745 32.8921 20.8666 33.2547ZM17.0174 24.185C16.4756 24.1833 16.1587 24.3554 15.9033 24.6699C15.5212 25.1405 15.1282 25.6021 14.7404 26.068C14.1999 26.7173 14.2665 27.4625 14.9138 28.0147C15.5872 28.5893 16.3927 28.5719 16.9323 27.9576C17.3199 27.5165 17.6806 27.0516 18.0725 26.6145C18.4798 26.1602 18.6304 25.6658 18.3419 25.1056C18.2249 24.8468 18.0399 24.6246 17.8067 24.4625C17.5735 24.3004 17.3007 24.2045 17.0174 24.185ZM24.3877 35.8225C24.3947 36.1445 24.4974 36.457 24.6828 36.7202C24.8682 36.9835 25.1279 37.1855 25.4286 37.3005C26.0466 37.5371 26.5058 37.4019 26.9804 36.841C27.1517 36.6385 27.3195 36.4331 27.489 36.2292C28.0817 35.5165 28.0277 34.7702 27.3421 34.1991C26.6238 33.6008 25.9175 33.655 25.3106 34.3593C25.088 34.6177 24.8784 34.8871 24.6543 35.144C24.4824 35.3281 24.3871 35.5707 24.3877 35.8225ZM23.6249 12.4629C23.9378 12.0423 24.0121 11.7261 23.8365 11.3732C23.9706 11.72 23.671 12.0032 23.6249 12.4629ZM24.8717 10.7728C24.8868 10.6951 24.8962 10.6163 24.8998 10.5372C24.8908 10.4104 24.8249 10.2815 24.7042 10.4052C24.5955 10.5165 24.7338 10.6309 24.8717 10.7728ZM27.9014 8.1522C27.9461 8.11831 27.9882 8.08112 28.0273 8.04094C28.0309 8.03683 27.9881 7.97188 27.9677 7.9724C27.9213 7.97963 27.8763 7.99355 27.8339 8.01373L27.9014 8.1522ZM2.82862 19.4204C2.81877 19.4529 2.79562 19.4882 2.8041 19.5123C2.81357 19.5393 2.85176 19.5562 2.87745 19.5775C2.88691 19.5468 2.91024 19.5115 2.90206 19.4866C2.89322 19.4597 2.85492 19.4425 2.82862 19.4204Z"/>
</mask>
<path d="M44.1694 32.8994C44.1115 33.348 43.9577 33.7788 43.7184 34.1626C43.4791 34.5464 43.16 34.8741 42.7827 35.1235C42.4054 35.373 41.9788 35.5382 41.532 35.608C41.0851 35.6778 40.6285 35.6506 40.1931 35.5281C39.7957 35.4183 39.6632 35.4309 39.5777 35.8941C39.2031 37.9237 36.9342 38.9709 35.0978 37.972C34.7229 37.7681 34.6478 37.7843 34.5361 38.2172C34.4071 38.7265 34.1495 39.1942 33.788 39.5755C33.4265 39.9567 32.9732 40.2389 32.4714 40.3948C31.9697 40.5508 31.4363 40.5754 30.9224 40.4662C30.4084 40.3571 29.9311 40.1178 29.536 39.7714C29.0135 39.3292 28.4965 38.8805 27.9851 38.4253C27.7987 38.2592 27.6528 38.167 27.3994 38.3461C25.8425 39.4465 23.5548 38.4023 23.0826 36.5155C23.0005 36.1875 22.9153 36.1106 22.5689 36.1365C21.8304 36.1973 21.0974 35.9675 20.5258 35.496C19.9542 35.0245 19.5892 34.3485 19.5085 33.6119C19.4744 33.3307 19.4281 33.237 19.1123 33.2439C17.318 33.2833 16.0626 32.0619 16.0783 30.2907C16.0814 29.9335 16.0155 29.8155 15.6339 29.7782C15.1882 29.739 14.7578 29.5958 14.3773 29.3602C13.9969 29.1245 13.677 28.803 13.4433 28.4214C13.2096 28.0398 13.0686 27.6087 13.0317 27.1627C12.9948 26.7167 13.0629 26.2683 13.2306 25.8534C13.2832 25.7565 13.3015 25.6446 13.2826 25.5359C13.2637 25.4272 13.2086 25.328 13.1263 25.2546C12.5563 24.6404 12.079 23.9465 11.7092 23.1946C11.5111 22.7768 11.0838 22.6613 10.7096 22.4867C10.5272 22.4015 10.4479 22.5899 10.3401 22.6857C9.44687 23.4789 8.56589 23.6067 7.50929 23.0673C5.90154 22.2466 4.29564 21.4219 2.69834 20.5811C1.35218 19.8725 0.942961 18.6154 1.63865 17.2645C4.27515 12.145 6.92066 7.03009 9.57517 1.91986C10.2874 0.549153 11.5574 0.174841 12.9421 0.885472C14.5145 1.69245 16.0848 2.50333 17.6532 3.31811C18.7517 3.88838 19.1895 4.70809 19.0137 5.9357C18.9771 6.19068 19.0174 6.30614 19.24 6.41969C19.9681 6.79106 20.6849 7.18423 21.4083 7.56485C21.755 7.74731 22.1387 7.75379 22.5178 7.78731C23.9448 7.91349 25.369 7.74173 26.7946 7.75642C26.9844 7.74217 27.1616 7.65571 27.2897 7.51484C27.7745 7.11661 28.2679 6.72825 28.7415 6.31712C30.1077 5.13109 31.6935 4.78308 33.4668 4.94423C36.1045 5.18396 38.6898 5.72 41.2857 6.20391C41.8459 6.30833 42.4135 6.37277 42.9739 6.47581C44.1458 6.69125 45.1729 6.19358 46.231 5.83937C46.4397 5.76953 46.3885 5.63356 46.374 5.47637C46.2457 4.08328 46.7972 3.24748 48.1339 2.80235C49.8277 2.23831 51.5222 1.67638 53.2174 1.11654C54.584 0.66481 55.8088 1.25249 56.2626 2.61522C58.0989 8.13012 59.9271 13.6477 61.7474 19.1679C62.1838 20.4915 61.6054 21.6914 60.3002 22.1446C58.5058 22.7676 56.7004 23.3597 54.8918 23.9407C53.8743 24.2676 52.975 23.9796 52.3187 23.1032C52.1084 22.8223 51.9478 22.8384 51.7211 22.995C51.5575 23.0913 51.411 23.2144 51.2879 23.359C50.3607 24.6518 49.1157 25.5856 47.8093 26.4461C47.5109 26.6427 47.4677 26.7389 47.7471 27.0179C48.2747 27.5217 48.614 28.1909 48.7086 28.9142C48.8032 29.6375 48.6474 30.3715 48.2672 30.994C47.8918 31.6182 47.3224 32.1023 46.6459 32.3724C45.9695 32.6425 45.2232 32.6837 44.5212 32.4897C44.4696 32.465 44.4226 32.4319 44.3821 32.3915C44.0062 32.4331 44.2031 32.7146 44.1694 32.8994ZM32.2651 13.5853L32.6259 13.9252C32.7676 14.1881 33.0481 14.2952 33.2597 14.4784C37.5015 18.1497 41.7471 21.8167 45.9966 25.4792C46.1744 25.6328 46.322 25.7785 46.5882 25.6022C47.8423 24.7718 49.1087 23.9574 50.0172 22.7192C50.3144 22.2728 50.7325 21.9201 51.2227 21.7024C51.6001 21.5522 51.6223 21.3741 51.5032 21.0177C50.0103 16.5497 48.5302 12.0775 47.0627 7.60099C46.9245 7.17857 46.773 7.086 46.3562 7.25195C45.2199 7.70436 44.0588 8.06136 42.8064 7.84651C41.8329 7.6795 40.8548 7.53585 39.8857 7.34615C37.6469 6.90786 35.4063 6.49299 33.128 6.30579C31.9213 6.20664 30.8196 6.42415 29.8596 7.19463C27.9901 8.69495 26.1722 10.2554 24.4059 11.8759C24.113 12.1337 23.8854 12.4573 23.7416 12.82C23.5978 13.1828 23.542 13.5744 23.5787 13.9629C23.6848 15.9943 23.824 18.0268 23.6163 20.0618C23.5509 20.7035 23.7218 20.8875 24.3636 20.8919C25.3664 20.8989 26.0325 20.2925 26.5563 19.5473C27.3029 18.5053 27.7463 17.2771 27.8375 15.9985C27.9275 14.7105 28.4845 13.7124 29.6296 13.0755C30.4158 12.6381 31.1595 12.7259 31.8601 13.2748C31.994 13.3797 32.13 13.4819 32.2651 13.5853ZM31.4904 14.8305C30.739 14.031 30.5555 14.0051 29.8916 14.6052C29.3722 14.9983 29.2734 15.5684 29.2082 16.1665C29.0004 18.0698 28.3675 19.7953 26.9704 21.1596C26.162 21.9491 25.1958 22.3964 24.0281 22.2552C23 22.1309 22.0564 21.4723 22.2188 20.099C22.4334 18.5317 22.4397 16.9428 22.2375 15.3738C21.8836 12.9861 22.6531 11.1704 24.6172 9.81335C24.816 9.67597 25.0577 9.53537 25.1439 9.22309C24.4158 9.22309 23.7333 9.22999 23.051 9.22149C21.992 9.20832 20.9634 9.07273 20.0769 8.41712C20.247 8.1865 20.5594 8.30215 20.7809 8.14996C20.3961 7.9521 20.0677 8.19559 19.7226 8.21518C19.3672 8.03716 19.0007 7.87789 18.6599 7.67535C18.3705 7.50332 18.2467 7.58906 18.1037 7.86676C15.8858 12.1741 13.6599 16.4773 11.4262 20.7765C11.2681 21.0806 11.2785 21.2359 11.6189 21.3728C11.9556 21.5066 12.2616 21.7074 12.5182 21.9631C12.7749 22.2189 12.9768 22.5241 13.1118 22.8603C13.3166 23.3334 13.6774 23.7127 13.9797 24.1269C14.1991 24.4275 14.3547 24.4232 14.573 24.1219C14.9443 23.6095 15.3768 23.1624 16.0027 22.9471C17.3265 22.4918 18.7945 23.0883 19.5381 24.4141C19.6783 24.664 19.7351 24.8013 20.049 24.5614C21.0349 23.8078 22.1207 23.7199 23.2004 24.3263C24.2802 24.9328 24.7578 25.9021 24.6472 27.1408C24.6218 27.4253 24.5914 27.5962 24.9864 27.6758C27.2237 28.1265 28.1142 30.1471 26.9727 32.1442C26.8425 32.3719 26.825 32.4393 27.0949 32.5304C27.4294 32.6608 27.7566 32.8092 28.0751 32.9751C29.4825 34.3579 29.6346 35.2316 28.725 36.8966C28.6058 37.1149 28.6944 37.2028 28.8298 37.3198C29.3765 37.7924 29.9114 38.2793 30.4713 38.7357C30.8129 39.0223 31.2543 39.1616 31.6986 39.123C32.1429 39.0845 32.5537 38.8712 32.8409 38.53C33.128 38.1889 33.2681 37.7477 33.2303 37.3034C33.1924 36.8591 32.9799 36.4479 32.6392 36.1602C31.4242 35.0959 30.1929 34.0503 28.9685 32.9968C28.7075 32.5973 28.5827 32.1944 29.0088 31.8276C29.4453 31.4516 29.8188 31.6988 30.177 31.9807C30.3112 32.0863 30.4377 32.2018 30.5671 32.3135C32.1922 33.7165 33.8244 35.1114 35.4395 36.5258C36.4474 37.4085 37.786 36.8249 38.1503 35.861C38.4191 35.1498 38.226 34.4794 37.5402 33.8833C35.7907 32.3627 34.0372 30.8468 32.2795 29.3357C32.0319 29.1574 31.834 28.9187 31.7046 28.6424C31.7098 28.5285 31.715 28.4146 31.7201 28.3008C32.17 27.5985 32.5665 27.5329 33.1936 28.0748C35.3227 29.9147 37.4501 31.7564 39.5759 33.6001C39.9218 33.8994 40.2738 34.187 40.7592 34.2369C41.1486 34.2906 41.5449 34.2174 41.8894 34.0281C42.2339 33.8389 42.5082 33.5437 42.6717 33.1863C43.0171 32.4527 42.8322 31.6085 42.1589 31.0223C40.1657 29.2867 38.1674 27.5569 36.1641 25.8328C35.9097 25.6334 35.6699 25.4161 35.4464 25.1825C35.1557 24.8464 35.0964 24.4584 35.4146 24.0988C35.723 23.7502 36.0876 23.7991 36.4421 24.0292C36.5976 24.1385 36.7455 24.2584 36.8846 24.3879C39.3007 26.4774 41.7167 28.567 44.1327 30.6566C45.0233 31.4244 46.17 31.3699 46.8743 30.5458C47.5933 29.7044 47.475 28.6163 46.5635 27.8257C43.2169 24.9234 39.868 22.0238 36.5166 19.1269C34.8483 17.6867 33.1663 16.2622 31.4904 14.8305ZM17.6791 5.5155C17.6866 5.31786 17.6339 5.1226 17.5278 4.95563C17.4218 4.78866 17.2675 4.65787 17.0855 4.58063C15.4647 3.74565 13.8499 2.89884 12.2254 2.07107C11.6055 1.75517 11.1296 1.91706 10.8066 2.54041C8.15875 7.65093 5.51471 12.7634 2.87445 17.8778C2.5223 18.5603 2.68184 19.0229 3.36829 19.3791C4.93641 20.1929 6.5071 21.0016 8.08036 21.8054C8.8066 22.1765 9.22452 22.0353 9.60617 21.2978C12.234 16.2198 14.8608 11.1414 17.4867 6.06245C17.5975 5.90011 17.6639 5.71151 17.6791 5.5155ZM53.9882 2.34982C53.896 2.3721 53.727 2.40069 53.566 2.45372C51.8884 3.00637 50.2118 3.56181 48.536 4.12003C47.778 4.37377 47.5754 4.79787 47.833 5.57583C49.6244 10.9846 51.4174 16.3929 53.212 21.8006C53.4898 22.6377 53.8873 22.8286 54.738 22.5466C56.2884 22.0326 57.8366 21.5117 59.3884 21.002C60.5258 20.6285 60.6871 20.332 60.3131 19.2023C59.2446 15.9749 58.1741 12.7481 57.1016 9.52205C56.4021 7.41313 55.704 5.30374 55.0074 3.19388C54.8531 2.72434 54.6168 2.36817 53.9882 2.34982ZM23.2834 26.8229C23.2871 26.5169 23.1949 26.2174 23.0198 25.9664C22.8447 25.7153 22.5955 25.5253 22.3071 25.423C21.7063 25.1908 21.0824 25.3611 20.6303 25.9168C19.6839 27.0802 18.7454 28.25 17.8149 29.4263C17.2452 30.1498 17.3361 31.0077 18.0071 31.5493C18.6583 32.075 19.5543 31.969 20.1249 31.2716C21.0625 30.1255 21.9834 28.9657 22.9126 27.8127C23.155 27.5404 23.2872 27.1875 23.2834 26.8229ZM20.8666 33.2547C20.8615 33.5602 20.9511 33.8598 21.1231 34.1124C21.2951 34.3649 21.5411 34.558 21.8273 34.6651C22.1106 34.782 22.4242 34.8035 22.7208 34.7265C23.0174 34.6495 23.2809 34.4781 23.4715 34.2382C24.2191 33.3565 24.9528 32.4629 25.6814 31.5653C26.2857 30.8207 26.2373 29.9433 25.5796 29.3859C24.8977 28.8079 24.0159 28.9227 23.3841 29.6833C22.6696 30.5434 21.968 31.4143 21.2521 32.2732C21.0111 32.5442 20.8745 32.8921 20.8666 33.2547ZM17.0174 24.185C16.4756 24.1833 16.1587 24.3554 15.9033 24.6699C15.5212 25.1405 15.1282 25.6021 14.7404 26.068C14.1999 26.7173 14.2665 27.4625 14.9138 28.0147C15.5872 28.5893 16.3927 28.5719 16.9323 27.9576C17.3199 27.5165 17.6806 27.0516 18.0725 26.6145C18.4798 26.1602 18.6304 25.6658 18.3419 25.1056C18.2249 24.8468 18.0399 24.6246 17.8067 24.4625C17.5735 24.3004 17.3007 24.2045 17.0174 24.185ZM24.3877 35.8225C24.3947 36.1445 24.4974 36.457 24.6828 36.7202C24.8682 36.9835 25.1279 37.1855 25.4286 37.3005C26.0466 37.5371 26.5058 37.4019 26.9804 36.841C27.1517 36.6385 27.3195 36.4331 27.489 36.2292C28.0817 35.5165 28.0277 34.7702 27.3421 34.1991C26.6238 33.6008 25.9175 33.655 25.3106 34.3593C25.088 34.6177 24.8784 34.8871 24.6543 35.144C24.4824 35.3281 24.3871 35.5707 24.3877 35.8225ZM23.6249 12.4629C23.9378 12.0423 24.0121 11.7261 23.8365 11.3732C23.9706 11.72 23.671 12.0032 23.6249 12.4629ZM24.8717 10.7728C24.8868 10.6951 24.8962 10.6163 24.8998 10.5372C24.8908 10.4104 24.8249 10.2815 24.7042 10.4052C24.5955 10.5165 24.7338 10.6309 24.8717 10.7728ZM27.9014 8.1522C27.9461 8.11831 27.9882 8.08112 28.0273 8.04094C28.0309 8.03683 27.9881 7.97188 27.9677 7.9724C27.9213 7.97963 27.8763 7.99355 27.8339 8.01373L27.9014 8.1522ZM2.82862 19.4204C2.81877 19.4529 2.79562 19.4882 2.8041 19.5123C2.81357 19.5393 2.85176 19.5562 2.87745 19.5775C2.88691 19.5468 2.91024 19.5115 2.90206 19.4866C2.89322 19.4597 2.85492 19.4425 2.82862 19.4204Z" fill="#F25522"/>
<path d="M44.1694 32.8994C44.1115 33.348 43.9577 33.7788 43.7184 34.1626C43.4791 34.5464 43.16 34.8741 42.7827 35.1235C42.4054 35.373 41.9788 35.5382 41.532 35.608C41.0851 35.6778 40.6285 35.6506 40.1931 35.5281C39.7957 35.4183 39.6632 35.4309 39.5777 35.8941C39.2031 37.9237 36.9342 38.9709 35.0978 37.972C34.7229 37.7681 34.6478 37.7843 34.5361 38.2172C34.4071 38.7265 34.1495 39.1942 33.788 39.5755C33.4265 39.9567 32.9732 40.2389 32.4714 40.3948C31.9697 40.5508 31.4363 40.5754 30.9224 40.4662C30.4084 40.3571 29.9311 40.1178 29.536 39.7714C29.0135 39.3292 28.4965 38.8805 27.9851 38.4253C27.7987 38.2592 27.6528 38.167 27.3994 38.3461C25.8425 39.4465 23.5548 38.4023 23.0826 36.5155C23.0005 36.1875 22.9153 36.1106 22.5689 36.1365C21.8304 36.1973 21.0974 35.9675 20.5258 35.496C19.9542 35.0245 19.5892 34.3485 19.5085 33.6119C19.4744 33.3307 19.4281 33.237 19.1123 33.2439C17.318 33.2833 16.0626 32.0619 16.0783 30.2907C16.0814 29.9335 16.0155 29.8155 15.6339 29.7782C15.1882 29.739 14.7578 29.5958 14.3773 29.3602C13.9969 29.1245 13.677 28.803 13.4433 28.4214C13.2096 28.0398 13.0686 27.6087 13.0317 27.1627C12.9948 26.7167 13.0629 26.2683 13.2306 25.8534C13.2832 25.7565 13.3015 25.6446 13.2826 25.5359C13.2637 25.4272 13.2086 25.328 13.1263 25.2546C12.5563 24.6404 12.079 23.9465 11.7092 23.1946C11.5111 22.7768 11.0838 22.6613 10.7096 22.4867C10.5272 22.4015 10.4479 22.5899 10.3401 22.6857C9.44687 23.4789 8.56589 23.6067 7.50929 23.0673C5.90154 22.2466 4.29564 21.4219 2.69834 20.5811C1.35218 19.8725 0.942961 18.6154 1.63865 17.2645C4.27515 12.145 6.92066 7.03009 9.57517 1.91986C10.2874 0.549153 11.5574 0.174841 12.9421 0.885472C14.5145 1.69245 16.0848 2.50333 17.6532 3.31811C18.7517 3.88838 19.1895 4.70809 19.0137 5.9357C18.9771 6.19068 19.0174 6.30614 19.24 6.41969C19.9681 6.79106 20.6849 7.18423 21.4083 7.56485C21.755 7.74731 22.1387 7.75379 22.5178 7.78731C23.9448 7.91349 25.369 7.74173 26.7946 7.75642C26.9844 7.74217 27.1616 7.65571 27.2897 7.51484C27.7745 7.11661 28.2679 6.72825 28.7415 6.31712C30.1077 5.13109 31.6935 4.78308 33.4668 4.94423C36.1045 5.18396 38.6898 5.72 41.2857 6.20391C41.8459 6.30833 42.4135 6.37277 42.9739 6.47581C44.1458 6.69125 45.1729 6.19358 46.231 5.83937C46.4397 5.76953 46.3885 5.63356 46.374 5.47637C46.2457 4.08328 46.7972 3.24748 48.1339 2.80235C49.8277 2.23831 51.5222 1.67638 53.2174 1.11654C54.584 0.66481 55.8088 1.25249 56.2626 2.61522C58.0989 8.13012 59.9271 13.6477 61.7474 19.1679C62.1838 20.4915 61.6054 21.6914 60.3002 22.1446C58.5058 22.7676 56.7004 23.3597 54.8918 23.9407C53.8743 24.2676 52.975 23.9796 52.3187 23.1032C52.1084 22.8223 51.9478 22.8384 51.7211 22.995C51.5575 23.0913 51.411 23.2144 51.2879 23.359C50.3607 24.6518 49.1157 25.5856 47.8093 26.4461C47.5109 26.6427 47.4677 26.7389 47.7471 27.0179C48.2747 27.5217 48.614 28.1909 48.7086 28.9142C48.8032 29.6375 48.6474 30.3715 48.2672 30.994C47.8918 31.6182 47.3224 32.1023 46.6459 32.3724C45.9695 32.6425 45.2232 32.6837 44.5212 32.4897C44.4696 32.465 44.4226 32.4319 44.3821 32.3915C44.0062 32.4331 44.2031 32.7146 44.1694 32.8994ZM32.2651 13.5853L32.6259 13.9252C32.7676 14.1881 33.0481 14.2952 33.2597 14.4784C37.5015 18.1497 41.7471 21.8167 45.9966 25.4792C46.1744 25.6328 46.322 25.7785 46.5882 25.6022C47.8423 24.7718 49.1087 23.9574 50.0172 22.7192C50.3144 22.2728 50.7325 21.9201 51.2227 21.7024C51.6001 21.5522 51.6223 21.3741 51.5032 21.0177C50.0103 16.5497 48.5302 12.0775 47.0627 7.60099C46.9245 7.17857 46.773 7.086 46.3562 7.25195C45.2199 7.70436 44.0588 8.06136 42.8064 7.84651C41.8329 7.6795 40.8548 7.53585 39.8857 7.34615C37.6469 6.90786 35.4063 6.49299 33.128 6.30579C31.9213 6.20664 30.8196 6.42415 29.8596 7.19463C27.9901 8.69495 26.1722 10.2554 24.4059 11.8759C24.113 12.1337 23.8854 12.4573 23.7416 12.82C23.5978 13.1828 23.542 13.5744 23.5787 13.9629C23.6848 15.9943 23.824 18.0268 23.6163 20.0618C23.5509 20.7035 23.7218 20.8875 24.3636 20.8919C25.3664 20.8989 26.0325 20.2925 26.5563 19.5473C27.3029 18.5053 27.7463 17.2771 27.8375 15.9985C27.9275 14.7105 28.4845 13.7124 29.6296 13.0755C30.4158 12.6381 31.1595 12.7259 31.8601 13.2748C31.994 13.3797 32.13 13.4819 32.2651 13.5853ZM31.4904 14.8305C30.739 14.031 30.5555 14.0051 29.8916 14.6052C29.3722 14.9983 29.2734 15.5684 29.2082 16.1665C29.0004 18.0698 28.3675 19.7953 26.9704 21.1596C26.162 21.9491 25.1958 22.3964 24.0281 22.2552C23 22.1309 22.0564 21.4723 22.2188 20.099C22.4334 18.5317 22.4397 16.9428 22.2375 15.3738C21.8836 12.9861 22.6531 11.1704 24.6172 9.81335C24.816 9.67597 25.0577 9.53537 25.1439 9.22309C24.4158 9.22309 23.7333 9.22999 23.051 9.22149C21.992 9.20832 20.9634 9.07273 20.0769 8.41712C20.247 8.1865 20.5594 8.30215 20.7809 8.14996C20.3961 7.9521 20.0677 8.19559 19.7226 8.21518C19.3672 8.03716 19.0007 7.87789 18.6599 7.67535C18.3705 7.50332 18.2467 7.58906 18.1037 7.86676C15.8858 12.1741 13.6599 16.4773 11.4262 20.7765C11.2681 21.0806 11.2785 21.2359 11.6189 21.3728C11.9556 21.5066 12.2616 21.7074 12.5182 21.9631C12.7749 22.2189 12.9768 22.5241 13.1118 22.8603C13.3166 23.3334 13.6774 23.7127 13.9797 24.1269C14.1991 24.4275 14.3547 24.4232 14.573 24.1219C14.9443 23.6095 15.3768 23.1624 16.0027 22.9471C17.3265 22.4918 18.7945 23.0883 19.5381 24.4141C19.6783 24.664 19.7351 24.8013 20.049 24.5614C21.0349 23.8078 22.1207 23.7199 23.2004 24.3263C24.2802 24.9328 24.7578 25.9021 24.6472 27.1408C24.6218 27.4253 24.5914 27.5962 24.9864 27.6758C27.2237 28.1265 28.1142 30.1471 26.9727 32.1442C26.8425 32.3719 26.825 32.4393 27.0949 32.5304C27.4294 32.6608 27.7566 32.8092 28.0751 32.9751C29.4825 34.3579 29.6346 35.2316 28.725 36.8966C28.6058 37.1149 28.6944 37.2028 28.8298 37.3198C29.3765 37.7924 29.9114 38.2793 30.4713 38.7357C30.8129 39.0223 31.2543 39.1616 31.6986 39.123C32.1429 39.0845 32.5537 38.8712 32.8409 38.53C33.128 38.1889 33.2681 37.7477 33.2303 37.3034C33.1924 36.8591 32.9799 36.4479 32.6392 36.1602C31.4242 35.0959 30.1929 34.0503 28.9685 32.9968C28.7075 32.5973 28.5827 32.1944 29.0088 31.8276C29.4453 31.4516 29.8188 31.6988 30.177 31.9807C30.3112 32.0863 30.4377 32.2018 30.5671 32.3135C32.1922 33.7165 33.8244 35.1114 35.4395 36.5258C36.4474 37.4085 37.786 36.8249 38.1503 35.861C38.4191 35.1498 38.226 34.4794 37.5402 33.8833C35.7907 32.3627 34.0372 30.8468 32.2795 29.3357C32.0319 29.1574 31.834 28.9187 31.7046 28.6424C31.7098 28.5285 31.715 28.4146 31.7201 28.3008C32.17 27.5985 32.5665 27.5329 33.1936 28.0748C35.3227 29.9147 37.4501 31.7564 39.5759 33.6001C39.9218 33.8994 40.2738 34.187 40.7592 34.2369C41.1486 34.2906 41.5449 34.2174 41.8894 34.0281C42.2339 33.8389 42.5082 33.5437 42.6717 33.1863C43.0171 32.4527 42.8322 31.6085 42.1589 31.0223C40.1657 29.2867 38.1674 27.5569 36.1641 25.8328C35.9097 25.6334 35.6699 25.4161 35.4464 25.1825C35.1557 24.8464 35.0964 24.4584 35.4146 24.0988C35.723 23.7502 36.0876 23.7991 36.4421 24.0292C36.5976 24.1385 36.7455 24.2584 36.8846 24.3879C39.3007 26.4774 41.7167 28.567 44.1327 30.6566C45.0233 31.4244 46.17 31.3699 46.8743 30.5458C47.5933 29.7044 47.475 28.6163 46.5635 27.8257C43.2169 24.9234 39.868 22.0238 36.5166 19.1269C34.8483 17.6867 33.1663 16.2622 31.4904 14.8305ZM17.6791 5.5155C17.6866 5.31786 17.6339 5.1226 17.5278 4.95563C17.4218 4.78866 17.2675 4.65787 17.0855 4.58063C15.4647 3.74565 13.8499 2.89884 12.2254 2.07107C11.6055 1.75517 11.1296 1.91706 10.8066 2.54041C8.15875 7.65093 5.51471 12.7634 2.87445 17.8778C2.5223 18.5603 2.68184 19.0229 3.36829 19.3791C4.93641 20.1929 6.5071 21.0016 8.08036 21.8054C8.8066 22.1765 9.22452 22.0353 9.60617 21.2978C12.234 16.2198 14.8608 11.1414 17.4867 6.06245C17.5975 5.90011 17.6639 5.71151 17.6791 5.5155ZM53.9882 2.34982C53.896 2.3721 53.727 2.40069 53.566 2.45372C51.8884 3.00637 50.2118 3.56181 48.536 4.12003C47.778 4.37377 47.5754 4.79787 47.833 5.57583C49.6244 10.9846 51.4174 16.3929 53.212 21.8006C53.4898 22.6377 53.8873 22.8286 54.738 22.5466C56.2884 22.0326 57.8366 21.5117 59.3884 21.002C60.5258 20.6285 60.6871 20.332 60.3131 19.2023C59.2446 15.9749 58.1741 12.7481 57.1016 9.52205C56.4021 7.41313 55.704 5.30374 55.0074 3.19388C54.8531 2.72434 54.6168 2.36817 53.9882 2.34982ZM23.2834 26.8229C23.2871 26.5169 23.1949 26.2174 23.0198 25.9664C22.8447 25.7153 22.5955 25.5253 22.3071 25.423C21.7063 25.1908 21.0824 25.3611 20.6303 25.9168C19.6839 27.0802 18.7454 28.25 17.8149 29.4263C17.2452 30.1498 17.3361 31.0077 18.0071 31.5493C18.6583 32.075 19.5543 31.969 20.1249 31.2716C21.0625 30.1255 21.9834 28.9657 22.9126 27.8127C23.155 27.5404 23.2872 27.1875 23.2834 26.8229ZM20.8666 33.2547C20.8615 33.5602 20.9511 33.8598 21.1231 34.1124C21.2951 34.3649 21.5411 34.558 21.8273 34.6651C22.1106 34.782 22.4242 34.8035 22.7208 34.7265C23.0174 34.6495 23.2809 34.4781 23.4715 34.2382C24.2191 33.3565 24.9528 32.4629 25.6814 31.5653C26.2857 30.8207 26.2373 29.9433 25.5796 29.3859C24.8977 28.8079 24.0159 28.9227 23.3841 29.6833C22.6696 30.5434 21.968 31.4143 21.2521 32.2732C21.0111 32.5442 20.8745 32.8921 20.8666 33.2547ZM17.0174 24.185C16.4756 24.1833 16.1587 24.3554 15.9033 24.6699C15.5212 25.1405 15.1282 25.6021 14.7404 26.068C14.1999 26.7173 14.2665 27.4625 14.9138 28.0147C15.5872 28.5893 16.3927 28.5719 16.9323 27.9576C17.3199 27.5165 17.6806 27.0516 18.0725 26.6145C18.4798 26.1602 18.6304 25.6658 18.3419 25.1056C18.2249 24.8468 18.0399 24.6246 17.8067 24.4625C17.5735 24.3004 17.3007 24.2045 17.0174 24.185ZM24.3877 35.8225C24.3947 36.1445 24.4974 36.457 24.6828 36.7202C24.8682 36.9835 25.1279 37.1855 25.4286 37.3005C26.0466 37.5371 26.5058 37.4019 26.9804 36.841C27.1517 36.6385 27.3195 36.4331 27.489 36.2292C28.0817 35.5165 28.0277 34.7702 27.3421 34.1991C26.6238 33.6008 25.9175 33.655 25.3106 34.3593C25.088 34.6177 24.8784 34.8871 24.6543 35.144C24.4824 35.3281 24.3871 35.5707 24.3877 35.8225ZM23.6249 12.4629C23.9378 12.0423 24.0121 11.7261 23.8365 11.3732C23.9706 11.72 23.671 12.0032 23.6249 12.4629ZM24.8717 10.7728C24.8868 10.6951 24.8962 10.6163 24.8998 10.5372C24.8908 10.4104 24.8249 10.2815 24.7042 10.4052C24.5955 10.5165 24.7338 10.6309 24.8717 10.7728ZM27.9014 8.1522C27.9461 8.11831 27.9882 8.08112 28.0273 8.04094C28.0309 8.03683 27.9881 7.97188 27.9677 7.9724C27.9213 7.97963 27.8763 7.99355 27.8339 8.01373L27.9014 8.1522ZM2.82862 19.4204C2.81877 19.4529 2.79562 19.4882 2.8041 19.5123C2.81357 19.5393 2.85176 19.5562 2.87745 19.5775C2.88691 19.5468 2.91024 19.5115 2.90206 19.4866C2.89322 19.4597 2.85492 19.4425 2.82862 19.4204Z" stroke="#F25522" stroke-width="0.83334" mask="url(#path-1-outside-1_2141_11592)"/>
</svg>
