<svg width="63" height="41" viewBox="0 0 44 41" fill="none" xmlns="http://www.w3.org/2000/svg">
<rect width="13.9752" height="13.5684" rx="2.18927" transform="matrix(-1 0 0 1 22.9609 10.7363)" fill="white" fill-opacity="0.51" stroke="#FDF1EC" stroke-width="2.19713"/>
<rect width="13.9752" height="13.5684" rx="2.18927" transform="matrix(-1 0 0 1 36.3281 10.7363)" fill="white" fill-opacity="0.51" stroke="#FDF1EC" stroke-width="2.19713"/>
<rect width="18.431" height="18.0237" rx="2.18927" transform="matrix(-1 0 0 1 31.6797 8.51953)" fill="white" stroke="#FDF1EC" stroke-width="2.19713"/>
<rect width="26.3616" height="2.39621" rx="1.19811" transform="matrix(-1 0 0 1 35.8359 32.0176)" fill="#FDF1EC"/>
<rect x="-1.09856" y="1.09856" width="39.076" height="36.1423" rx="4.22668" transform="matrix(-1 0 0 1 41.1076 1.93164)" stroke="#FDF1EC" stroke-width="2.19713"/>
<rect width="13.9752" height="13.5684" rx="2.18927" transform="matrix(-1 0 0 1 21.7578 9.07617)" fill="white" fill-opacity="0.51" stroke="#F25522" stroke-width="2.19713"/>
<rect width="13.9752" height="13.5684" rx="2.18927" transform="matrix(-1 0 0 1 35.1328 9.07617)" fill="white" fill-opacity="0.51" stroke="#F25522" stroke-width="2.19713"/>
<rect width="18.431" height="18.0237" rx="2.18927" transform="matrix(-1 0 0 1 30.4766 6.85938)" fill="white" stroke="#F25522" stroke-width="2.19713"/>
<rect width="26.3616" height="2.39621" rx="1.19811" transform="matrix(-1 0 0 1 34.6484 30.3574)" fill="#F25522"/>
<rect x="-1.09856" y="1.09856" width="39.076" height="36.1423" rx="4.22668" transform="matrix(-1 0 0 1 39.8966 0.269531)" stroke="#F25522" stroke-width="2.19713"/>
</svg>