<?xml version="1.0" standalone="no"?>
<!DOCTYPE svg PUBLIC "-//W3C//DTD SVG 20010904//EN"
 "http://www.w3.org/TR/2001/REC-SVG-20010904/DTD/svg10.dtd">
<svg version="1.0" xmlns="http://www.w3.org/2000/svg"
 width="300.000000pt" height="300.000000pt" viewBox="0 0 300.000000 300.000000"
 preserveAspectRatio="xMidYMid meet">

<g transform="translate(0.000000,300.000000) scale(0.100000,-0.100000)"
fill="#000000" stroke="none">
<path d="M982 2450 c-109 -29 -187 -74 -272 -160 -87 -86 -131 -163 -160 -276
-19 -73 -20 -113 -20 -781 l0 -703 703 0 c668 0 708 1 781 20 113 29 190 73
276 160 87 86 131 163 160 276 19 73 20 113 20 781 l0 703 -707 -1 c-664 0
-713 -1 -781 -19z m1278 -158 c14 -10 34 -36 44 -57 17 -35 18 -42 5 -79 -17
-50 -67 -86 -118 -86 -97 1 -152 104 -101 188 37 60 113 75 170 34z m-550
-284 c64 -20 160 -64 160 -73 0 -6 -121 -195 -125 -195 -2 0 -32 13 -67 30
-119 56 -258 32 -258 -45 0 -33 28 -50 172 -101 227 -81 307 -163 307 -319 1
-155 -125 -273 -326 -305 -111 -18 -274 12 -383 71 -104 56 -102 45 -30 154
34 52 65 95 68 95 3 0 26 -13 51 -29 121 -77 303 -82 341 -11 28 52 -21 92
-180 149 -221 81 -292 153 -292 298 -1 231 276 368 562 281z"/>
</g>
</svg>
